<svg xmlns="http://www.w3.org/2000/svg" xmlns:xlink="http://www.w3.org/1999/xlink" width="1080" zoomAndPan="magnify" viewBox="0 0 810 1439.999935" height="1920" preserveAspectRatio="xMidYMid meet" version="1.0"><defs><g/></defs><g fill="#151516" fill-opacity="1"><g transform="translate(377.146861, 666.809034)"><g><path d="M 3.359375 -17.5625 C 3.359375 -19.644531 3.8125 -21.632812 4.71875 -23.53125 C 5.632812 -25.4375 6.898438 -27.132812 8.515625 -28.625 C 10.140625 -30.125 12.035156 -31.3125 14.203125 -32.1875 C 16.367188 -33.0625 18.695312 -33.5 21.1875 -33.5 C 22.5 -33.5 23.453125 -33.609375 24.046875 -33.828125 C 24.640625 -34.054688 24.9375 -34.46875 24.9375 -35.0625 C 24.9375 -35.582031 24.703125 -35.925781 24.234375 -36.09375 C 23.773438 -36.257812 23.132812 -36.34375 22.3125 -36.34375 C 21.382812 -36.34375 20.582031 -36.257812 19.90625 -36.09375 C 19.238281 -35.925781 18.421875 -35.84375 17.453125 -35.84375 C 15.585938 -35.84375 13.769531 -36.128906 12 -36.703125 C 10.226562 -37.285156 8.78125 -38.265625 7.65625 -39.640625 C 6.539062 -41.023438 5.984375 -42.875 5.984375 -45.1875 C 5.984375 -46.53125 6.328125 -47.898438 7.015625 -49.296875 C 7.703125 -50.691406 8.765625 -51.96875 10.203125 -53.125 C 11.640625 -54.28125 13.503906 -55.222656 15.796875 -55.953125 C 18.085938 -56.679688 20.859375 -57.046875 24.109375 -57.046875 C 25.816406 -57.046875 27.617188 -56.820312 29.515625 -56.375 C 31.421875 -55.925781 33.210938 -55.242188 34.890625 -54.328125 C 36.566406 -53.410156 37.925781 -52.257812 38.96875 -50.875 C 40.019531 -49.5 40.546875 -47.882812 40.546875 -46.03125 C 40.546875 -44.238281 40.207031 -42.742188 39.53125 -41.546875 C 38.863281 -40.359375 38 -39.460938 36.9375 -38.859375 C 35.875 -38.265625 34.742188 -37.96875 33.546875 -37.96875 C 32.316406 -37.96875 31.234375 -38.285156 30.296875 -38.921875 C 29.367188 -39.554688 28.90625 -40.488281 28.90625 -41.71875 C 28.90625 -42.425781 29.148438 -42.890625 29.640625 -43.109375 C 29.972656 -42.515625 30.375 -42.101562 30.84375 -41.875 C 31.3125 -41.65625 31.84375 -41.546875 32.4375 -41.546875 C 33.332031 -41.546875 34.050781 -41.851562 34.59375 -42.46875 C 35.132812 -43.082031 35.523438 -43.816406 35.765625 -44.671875 C 36.003906 -45.535156 36.125 -46.320312 36.125 -47.03125 C 36.125 -48.445312 35.75 -49.875 35 -51.3125 C 34.257812 -52.75 33.007812 -53.953125 31.25 -54.921875 C 29.5 -55.890625 27.117188 -56.375 24.109375 -56.375 C 21.492188 -56.375 19.328125 -55.972656 17.609375 -55.171875 C 15.898438 -54.367188 14.550781 -53.359375 13.5625 -52.140625 C 12.570312 -50.929688 11.867188 -49.710938 11.453125 -48.484375 C 11.046875 -47.253906 10.84375 -46.210938 10.84375 -45.359375 C 10.84375 -43.335938 11.234375 -41.75 12.015625 -40.59375 C 12.804688 -39.4375 13.804688 -38.597656 15.015625 -38.078125 C 16.222656 -37.554688 17.476562 -37.226562 18.78125 -37.09375 C 20.09375 -36.96875 21.269531 -36.90625 22.3125 -36.90625 C 23.28125 -36.90625 24.050781 -36.765625 24.625 -36.484375 C 25.207031 -36.203125 25.5 -35.75 25.5 -35.125 C 25.5 -34.300781 25.195312 -33.738281 24.59375 -33.4375 C 24 -33.144531 23.273438 -33 22.421875 -33 C 19.660156 -33 17.207031 -32.257812 15.0625 -30.78125 C 12.925781 -29.3125 11.242188 -27.300781 10.015625 -24.75 C 8.785156 -22.195312 8.171875 -19.296875 8.171875 -16.046875 C 8.171875 -13.960938 8.53125 -11.929688 9.25 -9.953125 C 9.976562 -7.972656 11.015625 -6.203125 12.359375 -4.640625 C 13.703125 -3.078125 15.332031 -1.835938 17.25 -0.921875 C 19.164062 -0.00390625 21.316406 0.453125 23.703125 0.453125 C 26.316406 0.453125 28.609375 0.00390625 30.578125 -0.890625 C 32.554688 -1.785156 34.21875 -2.957031 35.5625 -4.40625 C 36.90625 -5.863281 37.921875 -7.429688 38.609375 -9.109375 C 39.304688 -10.785156 39.65625 -12.410156 39.65625 -13.984375 C 39.65625 -15.992188 39.175781 -17.722656 38.21875 -19.171875 C 37.269531 -20.628906 35.789062 -21.359375 33.78125 -21.359375 C 32.65625 -21.359375 31.664062 -21.195312 30.8125 -20.875 C 29.957031 -20.5625 29.164062 -20.203125 28.4375 -19.796875 C 27.707031 -19.390625 26.953125 -19.023438 26.171875 -18.703125 C 25.390625 -18.390625 24.515625 -18.234375 23.546875 -18.234375 C 22.390625 -18.234375 21.4375 -18.671875 20.6875 -19.546875 C 19.945312 -20.421875 19.578125 -21.4375 19.578125 -22.59375 C 19.578125 -23.820312 19.945312 -25.015625 20.6875 -26.171875 C 21.4375 -27.328125 22.4375 -28.378906 23.6875 -29.328125 C 24.9375 -30.273438 26.320312 -31.03125 27.84375 -31.59375 C 29.375 -32.15625 30.941406 -32.4375 32.546875 -32.4375 C 34.222656 -32.4375 35.640625 -32.304688 36.796875 -32.046875 C 37.953125 -31.785156 39.039062 -31.523438 40.0625 -31.265625 C 41.09375 -31.003906 42.203125 -30.875 43.390625 -30.875 C 44.253906 -30.875 44.9375 -30.992188 45.4375 -31.234375 C 45.9375 -31.472656 46.429688 -31.890625 46.921875 -32.484375 C 47.140625 -32.265625 47.238281 -31.875 47.21875 -31.3125 C 47.207031 -30.757812 47.015625 -30.179688 46.640625 -29.578125 C 46.265625 -28.984375 45.664062 -28.460938 44.84375 -28.015625 C 44.03125 -27.566406 42.914062 -27.34375 41.5 -27.34375 C 40.269531 -27.34375 39.234375 -27.414062 38.390625 -27.5625 C 37.546875 -27.71875 36.769531 -27.894531 36.0625 -28.09375 C 35.351562 -28.300781 34.550781 -28.476562 33.65625 -28.625 C 32.769531 -28.78125 31.632812 -28.859375 30.25 -28.859375 C 29.164062 -28.859375 28.035156 -28.71875 26.859375 -28.4375 C 25.691406 -28.15625 24.59375 -27.742188 23.5625 -27.203125 C 22.539062 -26.660156 21.710938 -26 21.078125 -25.21875 C 20.441406 -24.4375 20.125 -23.5625 20.125 -22.59375 C 20.125 -21.738281 20.410156 -20.890625 20.984375 -20.046875 C 21.566406 -19.210938 22.421875 -18.796875 23.546875 -18.796875 C 24.628906 -18.796875 25.65625 -19.023438 26.625 -19.484375 C 27.59375 -19.953125 28.578125 -20.492188 29.578125 -21.109375 C 30.585938 -21.722656 31.675781 -22.265625 32.84375 -22.734375 C 34.019531 -23.203125 35.335938 -23.4375 36.796875 -23.4375 C 37.503906 -23.4375 38.3125 -23.300781 39.21875 -23.03125 C 40.132812 -22.769531 41.019531 -22.3125 41.875 -21.65625 C 42.738281 -21.007812 43.445312 -20.117188 44 -18.984375 C 44.5625 -17.847656 44.84375 -16.421875 44.84375 -14.703125 C 44.84375 -12.472656 44.394531 -10.488281 43.5 -8.75 C 42.613281 -7.019531 41.414062 -5.53125 39.90625 -4.28125 C 38.394531 -3.03125 36.710938 -2.003906 34.859375 -1.203125 C 33.015625 -0.398438 31.132812 0.1875 29.21875 0.5625 C 27.300781 0.9375 25.484375 1.125 23.765625 1.125 C 18.953125 1.125 15.046875 0.285156 12.046875 -1.390625 C 9.046875 -3.078125 6.847656 -5.335938 5.453125 -8.171875 C 4.054688 -11.003906 3.359375 -14.132812 3.359375 -17.5625 Z M 3.359375 -17.5625 "/></g></g></g></svg>