<svg xmlns="http://www.w3.org/2000/svg" xmlns:xlink="http://www.w3.org/1999/xlink" width="1080" zoomAndPan="magnify" viewBox="0 0 810 1439.999935" height="1920" preserveAspectRatio="xMidYMid meet" version="1.0"><defs><g/></defs><g fill="#151516" fill-opacity="1"><g transform="translate(282.239805, 569.459403)"><g><path d="M 1.765625 -58.84375 L 11.234375 -58.84375 L 33.828125 -11.421875 L 51.484375 -58.84375 L 61.84375 -58.84375 L 61.84375 -58.25 C 60.15625 -58.25 58.925781 -57.738281 58.15625 -56.71875 C 57.394531 -55.707031 56.914062 -54.050781 56.71875 -51.75 C 56.53125 -49.457031 56.4375 -46.367188 56.4375 -42.484375 L 56.4375 -16.359375 C 56.4375 -12.515625 56.53125 -9.429688 56.71875 -7.109375 C 56.914062 -4.796875 57.394531 -3.128906 58.15625 -2.109375 C 58.925781 -1.097656 60.15625 -0.59375 61.84375 -0.59375 L 61.84375 0 L 45.953125 0 L 45.953125 -0.59375 C 47.640625 -0.59375 48.863281 -1.097656 49.625 -2.109375 C 50.394531 -3.128906 50.878906 -4.796875 51.078125 -7.109375 C 51.273438 -9.429688 51.375 -12.515625 51.375 -16.359375 L 51.375 -56.90625 C 49.25 -51.25 47.144531 -45.613281 45.0625 -40 C 42.988281 -34.394531 40.875 -28.660156 38.71875 -22.796875 C 36.5625 -16.929688 34.265625 -10.765625 31.828125 -4.296875 L 31.3125 -4.296875 C 29.46875 -8.253906 27.75 -11.929688 26.15625 -15.328125 C 24.5625 -18.722656 23.050781 -21.96875 21.625 -25.0625 C 20.195312 -28.164062 18.753906 -31.253906 17.296875 -34.328125 C 15.847656 -37.410156 14.359375 -40.609375 12.828125 -43.921875 C 11.296875 -47.242188 9.628906 -50.828125 7.828125 -54.671875 L 7.765625 -29.421875 L 7.765625 -21.953125 C 7.765625 -17.671875 8.039062 -14.132812 8.59375 -11.34375 C 9.144531 -8.5625 9.890625 -6.382812 10.828125 -4.8125 C 11.765625 -3.25 12.820312 -2.15625 14 -1.53125 C 15.175781 -0.90625 16.394531 -0.59375 17.65625 -0.59375 L 17.65625 0 L 1.765625 0 L 1.765625 -0.59375 C 3.453125 -0.59375 4.675781 -1.097656 5.4375 -2.109375 C 6.207031 -3.128906 6.6875 -4.796875 6.875 -7.109375 C 7.070312 -9.429688 7.171875 -12.515625 7.171875 -16.359375 L 7.171875 -42.484375 C 7.171875 -46.367188 7.070312 -49.457031 6.875 -51.75 C 6.6875 -54.050781 6.207031 -55.707031 5.4375 -56.71875 C 4.675781 -57.738281 3.453125 -58.25 1.765625 -58.25 Z M 1.765625 -58.84375 "/></g></g></g><g fill="#151516" fill-opacity="1"><g transform="translate(360.676162, 569.459403)"><g><path d="M 23.71875 1.171875 C 20.539062 1.171875 17.703125 0.601562 15.203125 -0.53125 C 12.710938 -1.664062 10.601562 -3.242188 8.875 -5.265625 C 7.15625 -7.285156 5.832031 -9.628906 4.90625 -12.296875 C 3.988281 -14.960938 3.53125 -17.804688 3.53125 -20.828125 C 3.53125 -23.847656 3.988281 -26.691406 4.90625 -29.359375 C 5.832031 -32.023438 7.15625 -34.367188 8.875 -36.390625 C 10.601562 -38.410156 12.710938 -39.988281 15.203125 -41.125 C 17.703125 -42.269531 20.539062 -42.84375 23.71875 -42.84375 C 26.894531 -42.84375 29.617188 -42.425781 31.890625 -41.59375 C 34.171875 -40.769531 36.035156 -39.691406 37.484375 -38.359375 C 38.929688 -37.023438 40 -35.570312 40.6875 -34 C 41.375 -32.4375 41.71875 -30.910156 41.71875 -29.421875 C 41.675781 -26.085938 40.734375 -23.476562 38.890625 -21.59375 C 37.046875 -19.707031 34.4375 -18.765625 31.0625 -18.765625 C 28.707031 -18.765625 26.695312 -19.03125 25.03125 -19.5625 C 23.363281 -20.09375 21.894531 -20.703125 20.625 -21.390625 C 19.351562 -22.078125 18.117188 -22.6875 16.921875 -23.21875 C 15.722656 -23.75 14.398438 -24.015625 12.953125 -24.015625 C 12.242188 -24.015625 11.601562 -23.828125 11.03125 -23.453125 C 10.46875 -23.078125 10.144531 -22.769531 10.0625 -22.53125 L 9.828125 -22.59375 C 9.828125 -23.8125 10.347656 -24.898438 11.390625 -25.859375 C 12.429688 -26.816406 13.96875 -27.296875 16 -27.296875 C 17.53125 -27.296875 18.984375 -26.90625 20.359375 -26.125 C 21.734375 -25.34375 23.046875 -24.429688 24.296875 -23.390625 C 25.554688 -22.347656 26.773438 -21.4375 27.953125 -20.65625 C 29.128906 -19.875 30.304688 -19.484375 31.484375 -19.484375 C 32.929688 -19.484375 34.125 -20.03125 35.0625 -21.125 C 36.007812 -22.21875 36.664062 -23.617188 37.03125 -25.328125 C 37.40625 -27.035156 37.4375 -28.859375 37.125 -30.796875 C 36.8125 -32.742188 36.125 -34.570312 35.0625 -36.28125 C 34.007812 -37.988281 32.539062 -39.390625 30.65625 -40.484375 C 28.769531 -41.578125 26.414062 -42.125 23.59375 -42.125 C 21.195312 -42.125 19.132812 -41.660156 17.40625 -40.734375 C 15.6875 -39.816406 14.257812 -38.59375 13.125 -37.0625 C 11.988281 -35.539062 11.078125 -33.859375 10.390625 -32.015625 C 9.703125 -30.171875 9.21875 -28.285156 8.9375 -26.359375 C 8.664062 -24.441406 8.550781 -22.65625 8.59375 -21 C 8.632812 -18.257812 9.046875 -15.671875 9.828125 -13.234375 C 10.609375 -10.804688 11.734375 -8.660156 13.203125 -6.796875 C 14.679688 -4.929688 16.476562 -3.46875 18.59375 -2.40625 C 20.707031 -1.351562 23.117188 -0.828125 25.828125 -0.828125 C 27.003906 -0.828125 28.316406 -1.003906 29.765625 -1.359375 C 31.222656 -1.710938 32.6875 -2.28125 34.15625 -3.0625 C 35.625 -3.84375 36.976562 -4.878906 38.21875 -6.171875 C 39.457031 -7.472656 40.425781 -9.0625 41.125 -10.9375 L 41.953125 -10.59375 C 40.421875 -7.101562 38.09375 -4.269531 34.96875 -2.09375 C 31.851562 0.0820312 28.101562 1.171875 23.71875 1.171875 Z M 23.71875 1.171875 "/></g></g></g><g fill="#151516" fill-opacity="1"><g transform="translate(420.989862, 569.459403)"><g><path d="M 19.765625 25.59375 C 16.203125 25.59375 13.015625 25.101562 10.203125 24.125 C 7.398438 23.144531 5.191406 21.671875 3.578125 19.703125 C 1.972656 17.742188 1.171875 15.316406 1.171875 12.421875 C 1.171875 10.691406 1.613281 9.175781 2.5 7.875 C 3.382812 6.582031 4.519531 5.570312 5.90625 4.84375 C 7.300781 4.125 8.765625 3.765625 10.296875 3.765625 C 11.671875 3.765625 12.867188 3.890625 13.890625 4.140625 C 14.910156 4.398438 15.878906 4.707031 16.796875 5.0625 C 17.722656 5.414062 18.703125 5.71875 19.734375 5.96875 C 20.773438 6.226562 21.984375 6.359375 23.359375 6.359375 C 23.828125 6.359375 24.375 6.257812 25 6.0625 C 25.632812 5.863281 26.15625 5.546875 26.5625 5.109375 C 26.976562 4.679688 27.085938 4.113281 26.890625 3.40625 L 27.125 3.359375 C 27.875 4.296875 28.160156 5.378906 27.984375 6.609375 C 27.804688 7.847656 27.21875 8.925781 26.21875 9.84375 C 25.21875 10.769531 23.875 11.234375 22.1875 11.234375 C 20.726562 11.234375 19.429688 11.015625 18.296875 10.578125 C 17.160156 10.148438 15.972656 9.722656 14.734375 9.296875 C 13.503906 8.867188 11.988281 8.65625 10.1875 8.65625 C 9.320312 8.65625 8.457031 8.859375 7.59375 9.265625 C 6.726562 9.679688 6.019531 10.25 5.46875 10.96875 C 4.925781 11.695312 4.65625 12.550781 4.65625 13.53125 C 4.65625 15.8125 5.3125 17.8125 6.625 19.53125 C 7.9375 21.257812 9.738281 22.601562 12.03125 23.5625 C 14.320312 24.53125 16.941406 25.015625 19.890625 25.015625 C 22.160156 25.015625 24.335938 24.582031 26.421875 23.71875 C 28.503906 22.851562 30.359375 21.644531 31.984375 20.09375 C 33.609375 18.539062 34.898438 16.707031 35.859375 14.59375 C 36.828125 12.476562 37.3125 10.164062 37.3125 7.65625 C 37.3125 5.613281 36.757812 3.796875 35.65625 2.203125 C 34.5625 0.617188 33.03125 -0.628906 31.0625 -1.546875 C 29.101562 -2.472656 26.8125 -2.9375 24.1875 -2.9375 C 22.570312 -2.9375 21.265625 -2.847656 20.265625 -2.671875 C 19.265625 -2.492188 18.296875 -2.316406 17.359375 -2.140625 C 16.421875 -1.972656 15.1875 -1.890625 13.65625 -1.890625 C 12.476562 -1.890625 11.359375 -2.160156 10.296875 -2.703125 C 9.234375 -3.253906 8.703125 -4.117188 8.703125 -5.296875 C 8.703125 -6.515625 9.15625 -7.460938 10.0625 -8.140625 C 10.96875 -8.828125 12.164062 -9.367188 13.65625 -9.765625 C 15.144531 -10.160156 16.769531 -10.550781 18.53125 -10.9375 C 20.300781 -11.332031 22.066406 -11.84375 23.828125 -12.46875 C 25.597656 -13.101562 27.226562 -13.976562 28.71875 -15.09375 C 30.207031 -16.207031 31.398438 -17.707031 32.296875 -19.59375 C 33.203125 -21.476562 33.65625 -23.875 33.65625 -26.78125 C 33.65625 -29.445312 33.15625 -31.945312 32.15625 -34.28125 C 31.15625 -36.613281 29.703125 -38.503906 27.796875 -39.953125 C 25.898438 -41.398438 23.617188 -42.125 20.953125 -42.125 C 18.285156 -42.125 16 -41.378906 14.09375 -39.890625 C 12.1875 -38.398438 10.722656 -36.476562 9.703125 -34.125 C 8.679688 -31.769531 8.171875 -29.257812 8.171875 -26.59375 C 8.171875 -23.925781 8.71875 -21.59375 9.8125 -19.59375 C 10.914062 -17.59375 12.398438 -16.03125 14.265625 -14.90625 C 16.128906 -13.789062 18.160156 -13.234375 20.359375 -13.234375 L 20.359375 -12.703125 C 19.847656 -12.628906 19.347656 -12.570312 18.859375 -12.53125 C 18.367188 -12.488281 17.890625 -12.46875 17.421875 -12.46875 C 14.554688 -12.46875 12.050781 -13.125 9.90625 -14.4375 C 7.769531 -15.757812 6.101562 -17.488281 4.90625 -19.625 C 3.71875 -21.757812 3.125 -24.082031 3.125 -26.59375 C 3.125 -28.675781 3.523438 -30.6875 4.328125 -32.625 C 5.128906 -34.570312 6.296875 -36.304688 7.828125 -37.828125 C 9.359375 -39.359375 11.226562 -40.578125 13.4375 -41.484375 C 15.65625 -42.390625 18.160156 -42.84375 20.953125 -42.84375 L 38.71875 -42.84375 L 38.71875 -40.953125 L 26.015625 -42.25 C 28.710938 -41.582031 31.003906 -40.453125 32.890625 -38.859375 C 34.773438 -37.273438 36.21875 -35.421875 37.21875 -33.296875 C 38.21875 -31.179688 38.71875 -28.945312 38.71875 -26.59375 C 38.71875 -23.53125 38.1875 -21.007812 37.125 -19.03125 C 36.070312 -17.050781 34.671875 -15.460938 32.921875 -14.265625 C 31.171875 -13.066406 29.253906 -12.15625 27.171875 -11.53125 C 25.097656 -10.90625 23.007812 -10.414062 20.90625 -10.0625 C 18.8125 -9.707031 16.890625 -9.375 15.140625 -9.0625 C 13.398438 -8.75 12 -8.328125 10.9375 -7.796875 C 9.882812 -7.265625 9.359375 -6.46875 9.359375 -5.40625 C 9.359375 -4.425781 9.828125 -3.691406 10.765625 -3.203125 C 11.710938 -2.710938 12.675781 -2.46875 13.65625 -2.46875 C 15.53125 -2.46875 17.253906 -2.703125 18.828125 -3.171875 C 20.398438 -3.648438 21.96875 -4.125 23.53125 -4.59375 C 25.101562 -5.0625 26.8125 -5.296875 28.65625 -5.296875 C 30.96875 -5.296875 33.113281 -4.742188 35.09375 -3.640625 C 37.082031 -2.546875 38.679688 -1.0625 39.890625 0.8125 C 41.109375 2.695312 41.71875 4.816406 41.71875 7.171875 C 41.71875 10.585938 40.832031 13.6875 39.0625 16.46875 C 37.300781 19.257812 34.78125 21.476562 31.5 23.125 C 28.226562 24.769531 24.316406 25.59375 19.765625 25.59375 Z M 19.765625 25.59375 "/></g></g></g><g fill="#151516" fill-opacity="1"><g transform="translate(478.714611, 569.459403)"><g><path d="M 3.53125 -11.890625 C 3.53125 -14.828125 4.066406 -17.265625 5.140625 -19.203125 C 6.222656 -21.148438 7.644531 -22.734375 9.40625 -23.953125 C 11.175781 -25.171875 13.117188 -26.140625 15.234375 -26.859375 C 17.359375 -27.585938 19.476562 -28.195312 21.59375 -28.6875 C 23.707031 -29.175781 25.644531 -29.6875 27.40625 -30.21875 C 29.175781 -30.75 30.601562 -31.425781 31.6875 -32.25 C 32.769531 -33.070312 33.3125 -34.171875 33.3125 -35.546875 C 33.3125 -37.148438 32.78125 -38.441406 31.71875 -39.421875 C 30.65625 -40.398438 29.335938 -41.113281 27.765625 -41.5625 C 26.203125 -42.019531 24.617188 -42.25 23.015625 -42.25 C 21.171875 -42.25 19.40625 -42.019531 17.71875 -41.5625 C 16.03125 -41.113281 14.65625 -40.390625 13.59375 -39.390625 C 12.53125 -38.390625 12 -37.066406 12 -35.421875 C 12 -34.328125 12.320312 -33.535156 12.96875 -33.046875 C 13.625 -32.554688 14.085938 -32.445312 14.359375 -32.71875 C 14.671875 -31.851562 14.441406 -31.066406 13.671875 -30.359375 C 12.910156 -29.648438 12.039062 -29.296875 11.0625 -29.296875 C 9.800781 -29.296875 8.78125 -29.765625 8 -30.703125 C 7.21875 -31.648438 6.828125 -32.753906 6.828125 -34.015625 C 6.828125 -35.972656 7.53125 -37.597656 8.9375 -38.890625 C 10.351562 -40.191406 12.285156 -41.175781 14.734375 -41.84375 C 17.191406 -42.507812 19.953125 -42.84375 23.015625 -42.84375 C 24.660156 -42.84375 26.375 -42.675781 28.15625 -42.34375 C 29.9375 -42.007812 31.59375 -41.515625 33.125 -40.859375 C 34.65625 -40.210938 35.898438 -39.4375 36.859375 -38.53125 C 37.828125 -37.632812 38.3125 -36.597656 38.3125 -35.421875 C 38.3125 -34.242188 37.894531 -33.300781 37.0625 -32.59375 C 36.238281 -31.894531 35.117188 -31.335938 33.703125 -30.921875 C 32.296875 -30.503906 30.707031 -30.117188 28.9375 -29.765625 C 27.175781 -29.421875 25.363281 -29.019531 23.5 -28.5625 C 21.644531 -28.113281 19.832031 -27.492188 18.0625 -26.703125 C 16.300781 -25.921875 14.710938 -24.898438 13.296875 -23.640625 C 11.890625 -22.390625 10.769531 -20.773438 9.9375 -18.796875 C 9.113281 -16.816406 8.703125 -14.394531 8.703125 -11.53125 C 8.703125 -9.488281 9.101562 -7.65625 9.90625 -6.03125 C 10.71875 -4.40625 11.847656 -3.117188 13.296875 -2.171875 C 14.742188 -1.234375 16.429688 -0.765625 18.359375 -0.765625 C 19.960938 -0.765625 21.597656 -1.195312 23.265625 -2.0625 C 24.941406 -2.925781 26.503906 -4.296875 27.953125 -6.171875 C 29.398438 -8.054688 30.566406 -10.5 31.453125 -13.5 C 32.335938 -16.5 32.78125 -20.140625 32.78125 -24.421875 C 32.78125 -25.085938 32.71875 -25.703125 32.59375 -26.265625 C 32.476562 -26.835938 32.207031 -27.179688 31.78125 -27.296875 C 31.78125 -27.492188 31.925781 -27.679688 32.21875 -27.859375 C 32.507812 -28.035156 32.890625 -28.125 33.359375 -28.125 C 34.816406 -28.125 35.878906 -27.679688 36.546875 -26.796875 C 37.210938 -25.921875 37.648438 -24.785156 37.859375 -23.390625 C 38.078125 -21.992188 38.1875 -20.515625 38.1875 -18.953125 C 38.1875 -17.648438 38.1875 -16.554688 38.1875 -15.671875 C 38.1875 -14.796875 38.195312 -13.953125 38.21875 -13.140625 C 38.238281 -12.335938 38.25 -11.4375 38.25 -10.4375 C 38.25 -9.4375 38.25 -8.15625 38.25 -6.59375 C 38.25 -4.945312 38.515625 -3.691406 39.046875 -2.828125 C 39.578125 -1.960938 40.191406 -1.375 40.890625 -1.0625 C 41.597656 -0.75 42.207031 -0.59375 42.71875 -0.59375 L 42.71875 0 L 38.546875 0 C 36.972656 0 35.644531 -0.664062 34.5625 -2 C 33.488281 -3.332031 32.953125 -5.097656 32.953125 -7.296875 L 32.953125 -17.359375 C 32.441406 -14.847656 31.773438 -12.472656 30.953125 -10.234375 C 30.128906 -8.003906 29.097656 -6.023438 27.859375 -4.296875 C 26.628906 -2.566406 25.097656 -1.222656 23.265625 -0.265625 C 21.441406 0.691406 19.238281 1.171875 16.65625 1.171875 C 14.144531 1.171875 11.894531 0.613281 9.90625 -0.5 C 7.925781 -1.613281 6.367188 -3.160156 5.234375 -5.140625 C 4.097656 -7.128906 3.53125 -9.378906 3.53125 -11.890625 Z M 3.53125 -11.890625 "/></g></g></g></svg>