<svg xmlns="http://www.w3.org/2000/svg" xmlns:xlink="http://www.w3.org/1999/xlink" width="1080" zoomAndPan="magnify" viewBox="0 0 810 1439.999935" height="1920" preserveAspectRatio="xMidYMid meet" version="1.0"><defs><g/></defs><g fill="#2c2a4a" fill-opacity="1"><g transform="translate(309.493471, 939.128346)"><g><path d="M 16.78125 -23.46875 C 16.78125 -23.957031 16.703125 -24.4375 16.546875 -24.90625 C 16.390625 -25.382812 16.164062 -25.726562 15.875 -25.9375 L 18.4375 -25.9375 C 18.6875 -25.707031 18.878906 -25.367188 19.015625 -24.921875 C 19.148438 -24.472656 19.21875 -24.007812 19.21875 -23.53125 C 19.21875 -22.382812 18.992188 -21.375 18.546875 -20.5 C 18.097656 -19.625 17.492188 -18.863281 16.734375 -18.21875 C 15.984375 -17.570312 15.160156 -17.007812 14.265625 -16.53125 C 13.378906 -16.0625 12.488281 -15.648438 11.59375 -15.296875 C 10.707031 -14.953125 9.890625 -14.648438 9.140625 -14.390625 C 8.390625 -14.128906 7.789062 -13.882812 7.34375 -13.65625 C 6.894531 -13.4375 6.671875 -13.207031 6.671875 -12.96875 C 6.671875 -12.675781 6.832031 -12.445312 7.15625 -12.28125 C 7.488281 -12.113281 7.925781 -11.957031 8.46875 -11.8125 C 9.007812 -11.664062 9.59375 -11.472656 10.21875 -11.234375 C 10.851562 -11.003906 11.488281 -10.671875 12.125 -10.234375 C 12.757812 -9.804688 13.328125 -9.222656 13.828125 -8.484375 C 14.429688 -7.585938 15.039062 -6.65625 15.65625 -5.6875 C 16.269531 -4.71875 16.898438 -3.828125 17.546875 -3.015625 C 18.191406 -2.203125 18.851562 -1.539062 19.53125 -1.03125 C 20.207031 -0.519531 20.914062 -0.265625 21.65625 -0.265625 L 21.65625 0 L 17.6875 0 C 17.394531 0 17.101562 -0.117188 16.8125 -0.359375 C 16.53125 -0.597656 16.179688 -1.007812 15.765625 -1.59375 C 15.347656 -2.175781 14.816406 -2.96875 14.171875 -3.96875 C 13.523438 -4.96875 12.691406 -6.238281 11.671875 -7.78125 C 11.097656 -8.644531 10.546875 -9.332031 10.015625 -9.84375 C 9.492188 -10.351562 9.007812 -10.753906 8.5625 -11.046875 C 8.125 -11.335938 7.742188 -11.570312 7.421875 -11.75 C 7.109375 -11.925781 6.859375 -12.097656 6.671875 -12.265625 C 6.492188 -12.441406 6.40625 -12.675781 6.40625 -12.96875 C 6.40625 -13.300781 6.585938 -13.613281 6.953125 -13.90625 C 7.328125 -14.195312 7.828125 -14.492188 8.453125 -14.796875 C 9.078125 -15.097656 9.753906 -15.429688 10.484375 -15.796875 C 11.222656 -16.160156 11.957031 -16.570312 12.6875 -17.03125 C 13.425781 -17.488281 14.109375 -18.019531 14.734375 -18.625 C 15.359375 -19.226562 15.851562 -19.925781 16.21875 -20.71875 C 16.59375 -21.519531 16.78125 -22.4375 16.78125 -23.46875 Z M 0.78125 0 L 0.78125 -0.265625 C 1.519531 -0.265625 2.054688 -0.488281 2.390625 -0.9375 C 2.734375 -1.382812 2.945312 -2.117188 3.03125 -3.140625 C 3.125 -4.160156 3.171875 -5.515625 3.171875 -7.203125 L 3.171875 -18.734375 C 3.171875 -20.441406 3.125 -21.800781 3.03125 -22.8125 C 2.945312 -23.820312 2.734375 -24.550781 2.390625 -25 C 2.054688 -25.445312 1.519531 -25.671875 0.78125 -25.671875 L 0.78125 -25.9375 L 7.75 -25.9375 L 7.75 -25.671875 C 7.007812 -25.671875 6.46875 -25.445312 6.125 -25 C 5.789062 -24.550781 5.582031 -23.820312 5.5 -22.8125 C 5.414062 -21.800781 5.375 -20.441406 5.375 -18.734375 L 5.375 -7.203125 C 5.375 -5.515625 5.414062 -4.160156 5.5 -3.140625 C 5.582031 -2.117188 5.789062 -1.382812 6.125 -0.9375 C 6.46875 -0.488281 7.007812 -0.265625 7.75 -0.265625 L 7.75 0 Z M 0.78125 0 "/></g></g></g><g fill="#2c2a4a" fill-opacity="1"><g transform="translate(331.666741, 939.128346)"><g><path d="M 10.453125 0.515625 C 9.054688 0.515625 7.804688 0.265625 6.703125 -0.234375 C 5.609375 -0.734375 4.679688 -1.425781 3.921875 -2.3125 C 3.160156 -3.207031 2.578125 -4.242188 2.171875 -5.421875 C 1.765625 -6.597656 1.5625 -7.851562 1.5625 -9.1875 C 1.5625 -10.507812 1.765625 -11.757812 2.171875 -12.9375 C 2.578125 -14.113281 3.160156 -15.144531 3.921875 -16.03125 C 4.679688 -16.925781 5.609375 -17.625 6.703125 -18.125 C 7.804688 -18.625 9.054688 -18.875 10.453125 -18.875 C 11.847656 -18.875 13.046875 -18.691406 14.046875 -18.328125 C 15.054688 -17.972656 15.878906 -17.5 16.515625 -16.90625 C 17.160156 -16.320312 17.632812 -15.679688 17.9375 -14.984375 C 18.238281 -14.296875 18.390625 -13.625 18.390625 -12.96875 C 18.367188 -11.5 17.953125 -10.347656 17.140625 -9.515625 C 16.328125 -8.691406 15.175781 -8.28125 13.6875 -8.28125 C 12.65625 -8.28125 11.769531 -8.394531 11.03125 -8.625 C 10.300781 -8.851562 9.65625 -9.117188 9.09375 -9.421875 C 8.53125 -9.722656 7.984375 -9.988281 7.453125 -10.21875 C 6.929688 -10.457031 6.347656 -10.578125 5.703125 -10.578125 C 5.390625 -10.578125 5.109375 -10.492188 4.859375 -10.328125 C 4.609375 -10.171875 4.46875 -10.039062 4.4375 -9.9375 L 4.328125 -9.953125 C 4.328125 -10.492188 4.554688 -10.972656 5.015625 -11.390625 C 5.472656 -11.816406 6.15625 -12.03125 7.0625 -12.03125 C 7.726562 -12.03125 8.363281 -11.859375 8.96875 -11.515625 C 9.570312 -11.171875 10.148438 -10.769531 10.703125 -10.3125 C 11.265625 -9.851562 11.800781 -9.445312 12.3125 -9.09375 C 12.832031 -8.75 13.351562 -8.578125 13.875 -8.578125 C 14.519531 -8.578125 15.046875 -8.816406 15.453125 -9.296875 C 15.867188 -9.785156 16.160156 -10.40625 16.328125 -11.15625 C 16.492188 -11.914062 16.503906 -12.722656 16.359375 -13.578125 C 16.222656 -14.429688 15.921875 -15.234375 15.453125 -15.984375 C 14.992188 -16.742188 14.347656 -17.363281 13.515625 -17.84375 C 12.679688 -18.332031 11.644531 -18.578125 10.40625 -18.578125 C 9.34375 -18.578125 8.429688 -18.375 7.671875 -17.96875 C 6.910156 -17.5625 6.28125 -17.019531 5.78125 -16.34375 C 5.28125 -15.664062 4.878906 -14.921875 4.578125 -14.109375 C 4.273438 -13.296875 4.0625 -12.460938 3.9375 -11.609375 C 3.820312 -10.765625 3.769531 -9.984375 3.78125 -9.265625 C 3.800781 -8.046875 3.984375 -6.898438 4.328125 -5.828125 C 4.671875 -4.765625 5.164062 -3.820312 5.8125 -3 C 6.46875 -2.175781 7.257812 -1.53125 8.1875 -1.0625 C 9.125 -0.59375 10.191406 -0.359375 11.390625 -0.359375 C 11.910156 -0.359375 12.488281 -0.4375 13.125 -0.59375 C 13.757812 -0.75 14.398438 -1 15.046875 -1.34375 C 15.703125 -1.695312 16.300781 -2.15625 16.84375 -2.71875 C 17.382812 -3.289062 17.8125 -3.992188 18.125 -4.828125 L 18.5 -4.671875 C 17.820312 -3.128906 16.796875 -1.878906 15.421875 -0.921875 C 14.046875 0.0351562 12.390625 0.515625 10.453125 0.515625 Z M 10.453125 0.515625 "/></g></g></g><g fill="#2c2a4a" fill-opacity="1"><g transform="translate(351.972804, 939.128346)"><g><path d="M 0.515625 -18.109375 L 0.515625 -18.359375 L 5.140625 -18.359375 L 5.140625 -15.328125 C 6.710938 -17.691406 8.8125 -18.875 11.4375 -18.875 C 12.894531 -18.875 14.191406 -18.550781 15.328125 -17.90625 C 16.472656 -17.257812 17.375 -16.332031 18.03125 -15.125 C 18.695312 -13.925781 19.03125 -12.5 19.03125 -10.84375 C 19.03125 -8.539062 18.582031 -6.582031 17.6875 -4.96875 C 16.789062 -3.351562 15.554688 -2.117188 13.984375 -1.265625 C 12.421875 -0.421875 10.640625 0 8.640625 0 C 8.203125 0 7.828125 -0.00390625 7.515625 -0.015625 C 7.210938 -0.0234375 6.882812 -0.0546875 6.53125 -0.109375 C 6.1875 -0.171875 5.722656 -0.273438 5.140625 -0.421875 L 5.140625 3.546875 C 5.140625 5.242188 5.179688 6.601562 5.265625 7.625 C 5.347656 8.644531 5.554688 9.378906 5.890625 9.828125 C 6.234375 10.273438 6.773438 10.5 7.515625 10.5 L 7.515625 10.765625 L 0.515625 10.765625 L 0.515625 10.5 C 1.265625 10.5 1.804688 10.273438 2.140625 9.828125 C 2.472656 9.378906 2.679688 8.644531 2.765625 7.625 C 2.859375 6.601562 2.90625 5.242188 2.90625 3.546875 L 2.90625 -11.15625 C 2.90625 -12.863281 2.859375 -14.222656 2.765625 -15.234375 C 2.679688 -16.242188 2.472656 -16.972656 2.140625 -17.421875 C 1.804688 -17.878906 1.265625 -18.109375 0.515625 -18.109375 Z M 5.140625 -11.328125 L 5.140625 -1.015625 C 5.554688 -0.785156 6.035156 -0.601562 6.578125 -0.46875 C 7.117188 -0.332031 7.703125 -0.265625 8.328125 -0.265625 C 9.429688 -0.265625 10.488281 -0.503906 11.5 -0.984375 C 12.507812 -1.472656 13.410156 -2.164062 14.203125 -3.0625 C 15.003906 -3.957031 15.632812 -5.019531 16.09375 -6.25 C 16.550781 -7.476562 16.78125 -8.828125 16.78125 -10.296875 C 16.78125 -11.742188 16.585938 -12.976562 16.203125 -14 C 15.828125 -15.019531 15.320312 -15.84375 14.6875 -16.46875 C 14.0625 -17.09375 13.367188 -17.546875 12.609375 -17.828125 C 11.847656 -18.117188 11.085938 -18.265625 10.328125 -18.265625 C 9.441406 -18.265625 8.597656 -18.039062 7.796875 -17.59375 C 7.003906 -17.15625 6.363281 -16.429688 5.875 -15.421875 C 5.382812 -14.410156 5.140625 -13.046875 5.140625 -11.328125 Z M 5.140625 -11.328125 "/></g></g></g><g fill="#2c2a4a" fill-opacity="1"><g transform="translate(372.823468, 939.128346)"><g><path d="M 1.5625 -5.234375 C 1.5625 -6.535156 1.796875 -7.613281 2.265625 -8.46875 C 2.742188 -9.320312 3.367188 -10.015625 4.140625 -10.546875 C 4.921875 -11.085938 5.78125 -11.519531 6.71875 -11.84375 C 7.65625 -12.164062 8.585938 -12.429688 9.515625 -12.640625 C 10.453125 -12.859375 11.304688 -13.082031 12.078125 -13.3125 C 12.859375 -13.550781 13.488281 -13.851562 13.96875 -14.21875 C 14.445312 -14.582031 14.6875 -15.066406 14.6875 -15.671875 C 14.6875 -16.378906 14.453125 -16.945312 13.984375 -17.375 C 13.515625 -17.8125 12.929688 -18.128906 12.234375 -18.328125 C 11.546875 -18.523438 10.847656 -18.625 10.140625 -18.625 C 9.328125 -18.625 8.546875 -18.523438 7.796875 -18.328125 C 7.054688 -18.128906 6.453125 -17.804688 5.984375 -17.359375 C 5.523438 -16.921875 5.296875 -16.335938 5.296875 -15.609375 C 5.296875 -15.128906 5.4375 -14.78125 5.71875 -14.5625 C 6 -14.34375 6.203125 -14.296875 6.328125 -14.421875 C 6.460938 -14.035156 6.363281 -13.6875 6.03125 -13.375 C 5.695312 -13.070312 5.3125 -12.921875 4.875 -12.921875 C 4.320312 -12.921875 3.875 -13.125 3.53125 -13.53125 C 3.1875 -13.945312 3.015625 -14.429688 3.015625 -14.984375 C 3.015625 -15.847656 3.320312 -16.566406 3.9375 -17.140625 C 4.5625 -17.710938 5.414062 -18.144531 6.5 -18.4375 C 7.582031 -18.726562 8.796875 -18.875 10.140625 -18.875 C 10.867188 -18.875 11.625 -18.800781 12.40625 -18.65625 C 13.195312 -18.507812 13.925781 -18.289062 14.59375 -18 C 15.269531 -17.71875 15.820312 -17.378906 16.25 -16.984375 C 16.675781 -16.585938 16.890625 -16.128906 16.890625 -15.609375 C 16.890625 -15.097656 16.707031 -14.6875 16.34375 -14.375 C 15.976562 -14.0625 15.484375 -13.8125 14.859375 -13.625 C 14.234375 -13.445312 13.53125 -13.28125 12.75 -13.125 C 11.976562 -12.96875 11.179688 -12.789062 10.359375 -12.59375 C 9.535156 -12.394531 8.734375 -12.117188 7.953125 -11.765625 C 7.179688 -11.421875 6.484375 -10.972656 5.859375 -10.421875 C 5.234375 -9.867188 4.738281 -9.15625 4.375 -8.28125 C 4.019531 -7.414062 3.84375 -6.347656 3.84375 -5.078125 C 3.84375 -4.179688 4.019531 -3.375 4.375 -2.65625 C 4.726562 -1.9375 5.222656 -1.367188 5.859375 -0.953125 C 6.503906 -0.546875 7.25 -0.34375 8.09375 -0.34375 C 8.800781 -0.34375 9.519531 -0.53125 10.25 -0.90625 C 10.988281 -1.289062 11.675781 -1.894531 12.3125 -2.71875 C 12.957031 -3.550781 13.472656 -4.628906 13.859375 -5.953125 C 14.253906 -7.273438 14.453125 -8.878906 14.453125 -10.765625 C 14.453125 -11.054688 14.425781 -11.328125 14.375 -11.578125 C 14.320312 -11.828125 14.195312 -11.976562 14 -12.03125 C 14 -12.125 14.0625 -12.207031 14.1875 -12.28125 C 14.320312 -12.351562 14.492188 -12.390625 14.703125 -12.390625 C 15.347656 -12.390625 15.816406 -12.195312 16.109375 -11.8125 C 16.398438 -11.425781 16.59375 -10.925781 16.6875 -10.3125 C 16.78125 -9.695312 16.828125 -9.046875 16.828125 -8.359375 C 16.828125 -7.785156 16.828125 -7.300781 16.828125 -6.90625 C 16.828125 -6.519531 16.832031 -6.148438 16.84375 -5.796875 C 16.851562 -5.441406 16.859375 -5.039062 16.859375 -4.59375 C 16.859375 -4.15625 16.859375 -3.59375 16.859375 -2.90625 C 16.859375 -2.175781 16.972656 -1.617188 17.203125 -1.234375 C 17.441406 -0.859375 17.71875 -0.601562 18.03125 -0.46875 C 18.34375 -0.332031 18.609375 -0.265625 18.828125 -0.265625 L 18.828125 0 L 16.984375 0 C 16.296875 0 15.710938 -0.289062 15.234375 -0.875 C 14.765625 -1.46875 14.53125 -2.25 14.53125 -3.21875 L 14.53125 -7.65625 C 14.300781 -6.539062 14.003906 -5.488281 13.640625 -4.5 C 13.273438 -3.519531 12.820312 -2.648438 12.28125 -1.890625 C 11.738281 -1.128906 11.0625 -0.535156 10.25 -0.109375 C 9.445312 0.304688 8.476562 0.515625 7.34375 0.515625 C 6.238281 0.515625 5.25 0.269531 4.375 -0.21875 C 3.5 -0.707031 2.8125 -1.390625 2.3125 -2.265625 C 1.8125 -3.140625 1.5625 -4.128906 1.5625 -5.234375 Z M 1.5625 -5.234375 "/></g></g></g><g fill="#2c2a4a" fill-opacity="1"><g transform="translate(392.429324, 939.128346)"><g><path d="M 10.453125 0.515625 C 9.054688 0.515625 7.804688 0.265625 6.703125 -0.234375 C 5.609375 -0.734375 4.679688 -1.425781 3.921875 -2.3125 C 3.160156 -3.207031 2.578125 -4.242188 2.171875 -5.421875 C 1.765625 -6.597656 1.5625 -7.851562 1.5625 -9.1875 C 1.5625 -10.507812 1.765625 -11.757812 2.171875 -12.9375 C 2.578125 -14.113281 3.160156 -15.144531 3.921875 -16.03125 C 4.679688 -16.925781 5.609375 -17.625 6.703125 -18.125 C 7.804688 -18.625 9.054688 -18.875 10.453125 -18.875 C 11.816406 -18.875 12.960938 -18.742188 13.890625 -18.484375 C 14.816406 -18.234375 15.6875 -17.847656 16.5 -17.328125 L 16.5 -18.734375 C 16.5 -20.441406 16.453125 -21.800781 16.359375 -22.8125 C 16.273438 -23.820312 16.0625 -24.550781 15.71875 -25 C 15.382812 -25.445312 14.847656 -25.671875 14.109375 -25.671875 L 14.109375 -25.9375 L 18.734375 -25.9375 L 18.734375 -7.203125 C 18.734375 -5.515625 18.773438 -4.160156 18.859375 -3.140625 C 18.941406 -2.117188 19.148438 -1.382812 19.484375 -0.9375 C 19.828125 -0.488281 20.367188 -0.265625 21.109375 -0.265625 L 21.109375 0 L 16.5 0 L 16.5 -2.046875 C 15.875 -1.304688 15.023438 -0.691406 13.953125 -0.203125 C 12.878906 0.273438 11.710938 0.515625 10.453125 0.515625 Z M 10.453125 -18.578125 C 9.117188 -18.578125 7.945312 -18.191406 6.9375 -17.421875 C 5.925781 -16.648438 5.144531 -15.554688 4.59375 -14.140625 C 4.039062 -12.734375 3.765625 -11.082031 3.765625 -9.1875 C 3.765625 -7.28125 4.039062 -5.617188 4.59375 -4.203125 C 5.144531 -2.796875 5.925781 -1.707031 6.9375 -0.9375 C 7.945312 -0.175781 9.117188 0.203125 10.453125 0.203125 C 11.160156 0.203125 11.867188 0.0820312 12.578125 -0.15625 C 13.285156 -0.394531 13.929688 -0.734375 14.515625 -1.171875 C 15.109375 -1.617188 15.585938 -2.132812 15.953125 -2.71875 C 16.316406 -3.3125 16.5 -3.953125 16.5 -4.640625 L 16.5 -15.28125 C 16.238281 -15.675781 15.851562 -16.132812 15.34375 -16.65625 C 14.832031 -17.175781 14.175781 -17.625 13.375 -18 C 12.582031 -18.382812 11.609375 -18.578125 10.453125 -18.578125 Z M 10.453125 -18.578125 "/></g></g></g><g fill="#2c2a4a" fill-opacity="1"><g transform="translate(414.317327, 939.128346)"><g><path d="M 1.5625 -5.234375 C 1.5625 -6.535156 1.796875 -7.613281 2.265625 -8.46875 C 2.742188 -9.320312 3.367188 -10.015625 4.140625 -10.546875 C 4.921875 -11.085938 5.78125 -11.519531 6.71875 -11.84375 C 7.65625 -12.164062 8.585938 -12.429688 9.515625 -12.640625 C 10.453125 -12.859375 11.304688 -13.082031 12.078125 -13.3125 C 12.859375 -13.550781 13.488281 -13.851562 13.96875 -14.21875 C 14.445312 -14.582031 14.6875 -15.066406 14.6875 -15.671875 C 14.6875 -16.378906 14.453125 -16.945312 13.984375 -17.375 C 13.515625 -17.8125 12.929688 -18.128906 12.234375 -18.328125 C 11.546875 -18.523438 10.847656 -18.625 10.140625 -18.625 C 9.328125 -18.625 8.546875 -18.523438 7.796875 -18.328125 C 7.054688 -18.128906 6.453125 -17.804688 5.984375 -17.359375 C 5.523438 -16.921875 5.296875 -16.335938 5.296875 -15.609375 C 5.296875 -15.128906 5.4375 -14.78125 5.71875 -14.5625 C 6 -14.34375 6.203125 -14.296875 6.328125 -14.421875 C 6.460938 -14.035156 6.363281 -13.6875 6.03125 -13.375 C 5.695312 -13.070312 5.3125 -12.921875 4.875 -12.921875 C 4.320312 -12.921875 3.875 -13.125 3.53125 -13.53125 C 3.1875 -13.945312 3.015625 -14.429688 3.015625 -14.984375 C 3.015625 -15.847656 3.320312 -16.566406 3.9375 -17.140625 C 4.5625 -17.710938 5.414062 -18.144531 6.5 -18.4375 C 7.582031 -18.726562 8.796875 -18.875 10.140625 -18.875 C 10.867188 -18.875 11.625 -18.800781 12.40625 -18.65625 C 13.195312 -18.507812 13.925781 -18.289062 14.59375 -18 C 15.269531 -17.71875 15.820312 -17.378906 16.25 -16.984375 C 16.675781 -16.585938 16.890625 -16.128906 16.890625 -15.609375 C 16.890625 -15.097656 16.707031 -14.6875 16.34375 -14.375 C 15.976562 -14.0625 15.484375 -13.8125 14.859375 -13.625 C 14.234375 -13.445312 13.53125 -13.28125 12.75 -13.125 C 11.976562 -12.96875 11.179688 -12.789062 10.359375 -12.59375 C 9.535156 -12.394531 8.734375 -12.117188 7.953125 -11.765625 C 7.179688 -11.421875 6.484375 -10.972656 5.859375 -10.421875 C 5.234375 -9.867188 4.738281 -9.15625 4.375 -8.28125 C 4.019531 -7.414062 3.84375 -6.347656 3.84375 -5.078125 C 3.84375 -4.179688 4.019531 -3.375 4.375 -2.65625 C 4.726562 -1.9375 5.222656 -1.367188 5.859375 -0.953125 C 6.503906 -0.546875 7.25 -0.34375 8.09375 -0.34375 C 8.800781 -0.34375 9.519531 -0.53125 10.25 -0.90625 C 10.988281 -1.289062 11.675781 -1.894531 12.3125 -2.71875 C 12.957031 -3.550781 13.472656 -4.628906 13.859375 -5.953125 C 14.253906 -7.273438 14.453125 -8.878906 14.453125 -10.765625 C 14.453125 -11.054688 14.425781 -11.328125 14.375 -11.578125 C 14.320312 -11.828125 14.195312 -11.976562 14 -12.03125 C 14 -12.125 14.0625 -12.207031 14.1875 -12.28125 C 14.320312 -12.351562 14.492188 -12.390625 14.703125 -12.390625 C 15.347656 -12.390625 15.816406 -12.195312 16.109375 -11.8125 C 16.398438 -11.425781 16.59375 -10.925781 16.6875 -10.3125 C 16.78125 -9.695312 16.828125 -9.046875 16.828125 -8.359375 C 16.828125 -7.785156 16.828125 -7.300781 16.828125 -6.90625 C 16.828125 -6.519531 16.832031 -6.148438 16.84375 -5.796875 C 16.851562 -5.441406 16.859375 -5.039062 16.859375 -4.59375 C 16.859375 -4.15625 16.859375 -3.59375 16.859375 -2.90625 C 16.859375 -2.175781 16.972656 -1.617188 17.203125 -1.234375 C 17.441406 -0.859375 17.71875 -0.601562 18.03125 -0.46875 C 18.34375 -0.332031 18.609375 -0.265625 18.828125 -0.265625 L 18.828125 0 L 16.984375 0 C 16.296875 0 15.710938 -0.289062 15.234375 -0.875 C 14.765625 -1.46875 14.53125 -2.25 14.53125 -3.21875 L 14.53125 -7.65625 C 14.300781 -6.539062 14.003906 -5.488281 13.640625 -4.5 C 13.273438 -3.519531 12.820312 -2.648438 12.28125 -1.890625 C 11.738281 -1.128906 11.0625 -0.535156 10.25 -0.109375 C 9.445312 0.304688 8.476562 0.515625 7.34375 0.515625 C 6.238281 0.515625 5.25 0.269531 4.375 -0.21875 C 3.5 -0.707031 2.8125 -1.390625 2.3125 -2.265625 C 1.8125 -3.140625 1.5625 -4.128906 1.5625 -5.234375 Z M 1.5625 -5.234375 "/></g></g></g><g fill="#2c2a4a" fill-opacity="1"><g transform="translate(433.923183, 939.128346)"><g/></g></g><g fill="#2c2a4a" fill-opacity="1"><g transform="translate(443.259341, 939.128346)"><g><path d="M 0 -25.671875 L 0 -25.9375 L 7.203125 -25.9375 L 7.203125 -25.671875 L 6.640625 -25.671875 C 6.273438 -25.671875 5.945312 -25.570312 5.65625 -25.375 C 5.375 -25.175781 5.234375 -24.816406 5.234375 -24.296875 C 5.234375 -24.003906 5.347656 -23.5625 5.578125 -22.96875 C 5.816406 -22.375 6.132812 -21.6875 6.53125 -20.90625 C 6.9375 -20.125 7.375 -19.296875 7.84375 -18.421875 C 8.320312 -17.554688 8.796875 -16.691406 9.265625 -15.828125 C 9.742188 -14.972656 10.191406 -14.171875 10.609375 -13.421875 C 11.035156 -12.671875 11.378906 -12.035156 11.640625 -11.515625 C 12.003906 -12.191406 12.445312 -13.015625 12.96875 -13.984375 C 13.488281 -14.953125 14.023438 -15.972656 14.578125 -17.046875 C 15.128906 -18.117188 15.648438 -19.15625 16.140625 -20.15625 C 16.640625 -21.15625 17.039062 -22.039062 17.34375 -22.8125 C 17.644531 -23.582031 17.796875 -24.140625 17.796875 -24.484375 C 17.796875 -24.953125 17.644531 -25.265625 17.34375 -25.421875 C 17.039062 -25.585938 16.707031 -25.671875 16.34375 -25.671875 L 15.671875 -25.671875 L 15.671875 -25.9375 L 21.21875 -25.9375 L 21.21875 -25.671875 C 20.5625 -25.671875 20.007812 -25.445312 19.5625 -25 C 19.125 -24.550781 18.660156 -23.847656 18.171875 -22.890625 C 17.691406 -21.941406 17.054688 -20.71875 16.265625 -19.21875 C 15.722656 -18.21875 15.15625 -17.1875 14.5625 -16.125 C 13.976562 -15.070312 13.429688 -14.09375 12.921875 -13.1875 C 12.421875 -12.28125 12.019531 -11.539062 11.71875 -10.96875 L 11.71875 -7.203125 C 11.71875 -5.515625 11.757812 -4.160156 11.84375 -3.140625 C 11.9375 -2.117188 12.148438 -1.382812 12.484375 -0.9375 C 12.828125 -0.488281 13.367188 -0.265625 14.109375 -0.265625 L 14.109375 0 L 7.109375 0 L 7.109375 -0.265625 C 7.847656 -0.265625 8.382812 -0.488281 8.71875 -0.9375 C 9.0625 -1.382812 9.273438 -2.117188 9.359375 -3.140625 C 9.453125 -4.160156 9.5 -5.515625 9.5 -7.203125 L 9.5 -10.96875 C 9.195312 -11.539062 8.789062 -12.28125 8.28125 -13.1875 C 7.769531 -14.09375 7.222656 -15.070312 6.640625 -16.125 C 6.054688 -17.1875 5.492188 -18.21875 4.953125 -19.21875 C 4.171875 -20.71875 3.535156 -21.941406 3.046875 -22.890625 C 2.554688 -23.847656 2.085938 -24.550781 1.640625 -25 C 1.203125 -25.445312 0.65625 -25.671875 0 -25.671875 Z M 0 -25.671875 "/></g></g></g><g fill="#2c2a4a" fill-opacity="1"><g transform="translate(464.732404, 939.128346)"><g><path d="M 0.515625 -18.359375 C 1.378906 -18.359375 2.085938 -18.515625 2.640625 -18.828125 C 3.191406 -19.140625 3.617188 -19.546875 3.921875 -20.046875 C 4.234375 -20.546875 4.457031 -21.085938 4.59375 -21.671875 C 4.726562 -22.253906 4.804688 -22.804688 4.828125 -23.328125 C 4.859375 -23.859375 4.875 -24.296875 4.875 -24.640625 L 5.140625 -24.640625 L 5.140625 -18.359375 L 7.109375 -18.359375 L 7.109375 -18.109375 L 5.140625 -18.109375 L 5.140625 -5.65625 C 5.140625 -4.300781 5.140625 -3.226562 5.140625 -2.4375 C 5.140625 -1.644531 5.191406 -1.070312 5.296875 -0.71875 C 5.410156 -0.375 5.632812 -0.203125 5.96875 -0.203125 C 6.238281 -0.203125 6.488281 -0.300781 6.71875 -0.5 C 6.945312 -0.695312 7.128906 -0.898438 7.265625 -1.109375 C 7.398438 -1.316406 7.46875 -1.421875 7.46875 -1.421875 L 7.734375 -1.296875 C 7.398438 -0.742188 7.003906 -0.304688 6.546875 0.015625 C 6.085938 0.347656 5.53125 0.515625 4.875 0.515625 C 4.132812 0.515625 3.617188 0.242188 3.328125 -0.296875 C 3.046875 -0.835938 2.90625 -1.535156 2.90625 -2.390625 L 2.90625 -18.109375 L 0.515625 -18.109375 Z M 0.515625 -18.359375 "/></g></g></g><g fill="#2c2a4a" fill-opacity="1"><g transform="translate(473.238694, 939.128346)"><g><path d="M 0.78125 -0.265625 C 1.519531 -0.265625 2.054688 -0.488281 2.390625 -0.9375 C 2.734375 -1.382812 2.945312 -2.117188 3.03125 -3.140625 C 3.125 -4.160156 3.171875 -5.515625 3.171875 -7.203125 L 3.171875 -18.734375 C 3.171875 -20.441406 3.125 -21.800781 3.03125 -22.8125 C 2.945312 -23.820312 2.734375 -24.550781 2.390625 -25 C 2.054688 -25.445312 1.519531 -25.671875 0.78125 -25.671875 L 0.78125 -25.9375 L 5.390625 -25.9375 L 5.390625 -18.4375 C 5.640625 -18.4375 5.988281 -18.457031 6.4375 -18.5 C 6.882812 -18.550781 7.375 -18.601562 7.90625 -18.65625 C 8.445312 -18.71875 8.957031 -18.769531 9.4375 -18.8125 C 9.925781 -18.851562 10.304688 -18.875 10.578125 -18.875 C 11.046875 -18.875 11.578125 -18.84375 12.171875 -18.78125 C 12.773438 -18.726562 13.382812 -18.601562 14 -18.40625 C 14.625 -18.207031 15.195312 -17.898438 15.71875 -17.484375 C 16.25 -17.066406 16.679688 -16.503906 17.015625 -15.796875 C 17.347656 -15.085938 17.515625 -14.1875 17.515625 -13.09375 L 17.515625 -7.203125 C 17.515625 -5.515625 17.554688 -4.160156 17.640625 -3.140625 C 17.722656 -2.117188 17.929688 -1.382812 18.265625 -0.9375 C 18.609375 -0.488281 19.148438 -0.265625 19.890625 -0.265625 L 19.890625 0 L 12.890625 0 L 12.890625 -0.265625 C 13.628906 -0.265625 14.164062 -0.488281 14.5 -0.9375 C 14.84375 -1.382812 15.054688 -2.117188 15.140625 -3.140625 C 15.234375 -4.160156 15.28125 -5.515625 15.28125 -7.203125 C 15.28125 -7.359375 15.28125 -7.640625 15.28125 -8.046875 C 15.28125 -8.453125 15.28125 -8.910156 15.28125 -9.421875 C 15.28125 -9.929688 15.273438 -10.425781 15.265625 -10.90625 C 15.253906 -11.382812 15.25 -11.773438 15.25 -12.078125 C 15.25 -12.390625 15.25 -12.546875 15.25 -12.546875 C 15.25 -13.710938 15.101562 -14.664062 14.8125 -15.40625 C 14.53125 -16.144531 14.160156 -16.726562 13.703125 -17.15625 C 13.242188 -17.582031 12.75 -17.894531 12.21875 -18.09375 C 11.695312 -18.289062 11.1875 -18.410156 10.6875 -18.453125 C 10.1875 -18.492188 9.765625 -18.515625 9.421875 -18.515625 C 8.765625 -18.515625 8.082031 -18.445312 7.375 -18.3125 C 6.675781 -18.175781 6.015625 -17.992188 5.390625 -17.765625 L 5.390625 -7.203125 C 5.390625 -5.515625 5.429688 -4.160156 5.515625 -3.140625 C 5.609375 -2.117188 5.820312 -1.382812 6.15625 -0.9375 C 6.5 -0.488281 7.039062 -0.265625 7.78125 -0.265625 L 7.78125 0 L 0.78125 0 Z M 0.78125 -0.265625 "/></g></g></g><g fill="#2c2a4a" fill-opacity="1"><g transform="translate(493.90782, 939.128346)"><g><path d="M 1.5625 -1.734375 C 1.5625 -2.222656 1.726562 -2.632812 2.0625 -2.96875 C 2.394531 -3.300781 2.804688 -3.46875 3.296875 -3.46875 C 3.773438 -3.46875 4.179688 -3.300781 4.515625 -2.96875 C 4.859375 -2.632812 5.03125 -2.222656 5.03125 -1.734375 C 5.03125 -1.253906 4.859375 -0.84375 4.515625 -0.5 C 4.179688 -0.164062 3.773438 0 3.296875 0 C 2.804688 0 2.394531 -0.164062 2.0625 -0.5 C 1.726562 -0.84375 1.5625 -1.253906 1.5625 -1.734375 Z M 1.5625 -11 C 1.5625 -11.476562 1.726562 -11.882812 2.0625 -12.21875 C 2.394531 -12.5625 2.804688 -12.734375 3.296875 -12.734375 C 3.773438 -12.734375 4.179688 -12.5625 4.515625 -12.21875 C 4.859375 -11.882812 5.03125 -11.476562 5.03125 -11 C 5.03125 -10.507812 4.859375 -10.097656 4.515625 -9.765625 C 4.179688 -9.429688 3.773438 -9.265625 3.296875 -9.265625 C 2.804688 -9.265625 2.394531 -9.429688 2.0625 -9.765625 C 1.726562 -10.097656 1.5625 -10.507812 1.5625 -11 Z M 1.5625 -11 "/></g></g></g></svg>