<svg xmlns="http://www.w3.org/2000/svg" xmlns:xlink="http://www.w3.org/1999/xlink" width="1080" zoomAndPan="magnify" viewBox="0 0 810 1439.999935" height="1920" preserveAspectRatio="xMidYMid meet" version="1.0"><defs><clipPath id="5a54e22c1c"><path d="M 394 822.878906 L 411 822.878906 L 411 839 L 394 839 Z M 394 822.878906 " clip-rule="nonzero"/></clipPath></defs><path fill="#151516" d="M 391.222656 832.695312 L 391.222656 831.621094 L 325.996094 830.914062 L 391.222656 830.210938 L 391.222656 829.132812 L 226.464844 830.914062 Z M 391.222656 832.695312 " fill-opacity="1" fill-rule="nonzero"/><path fill="#151516" d="M 414.09375 829.132812 L 414.09375 830.210938 L 479.328125 830.914062 L 414.09375 831.621094 L 414.09375 832.695312 L 578.859375 830.914062 Z M 414.09375 829.132812 " fill-opacity="1" fill-rule="nonzero"/><g clip-path="url(#5a54e22c1c)"><path fill="#151516" d="M 410.464844 830.203125 C 410.296875 829.953125 410.078125 829.75 409.832031 829.582031 C 409.679688 829.476562 409.511719 829.378906 409.34375 829.292969 C 409.175781 829.210938 409 829.132812 408.820312 829.066406 C 408.847656 828.957031 408.863281 828.855469 408.863281 828.746094 C 408.863281 828.28125 408.585938 827.816406 408.027344 827.417969 C 407.394531 828.886719 405.503906 830.128906 402.933594 830.835938 L 408.324219 825.242188 L 402.730469 830.632812 C 403.4375 828.070312 404.675781 826.179688 406.144531 825.546875 C 405.742188 824.988281 405.277344 824.710938 404.8125 824.710938 C 404.703125 824.710938 404.601562 824.726562 404.492188 824.753906 C 404.425781 824.570312 404.347656 824.398438 404.265625 824.230469 C 404.113281 823.925781 403.933594 823.632812 403.691406 823.394531 C 403.511719 823.203125 403.292969 823.042969 403.042969 822.949219 C 402.796875 822.863281 402.511719 822.855469 402.265625 822.949219 C 402.148438 822.992188 402.039062 823.050781 401.9375 823.117188 C 401.691406 823.285156 401.488281 823.503906 401.320312 823.75 C 401.210938 823.902344 401.117188 824.070312 401.03125 824.238281 C 400.949219 824.40625 400.871094 824.578125 400.804688 824.761719 C 400.695312 824.730469 400.59375 824.71875 400.484375 824.71875 C 400.019531 824.71875 399.554688 824.992188 399.152344 825.554688 C 400.628906 826.1875 401.875 828.09375 402.578125 830.667969 L 396.957031 825.25 L 402.339844 830.835938 C 399.792969 830.128906 397.910156 828.894531 397.277344 827.421875 C 396.714844 827.824219 396.441406 828.289062 396.441406 828.753906 C 396.441406 828.863281 396.453125 828.964844 396.484375 829.074219 C 396.300781 829.140625 396.125 829.21875 395.960938 829.300781 C 395.652344 829.453125 395.363281 829.632812 395.121094 829.875 C 394.933594 830.054688 394.773438 830.273438 394.679688 830.523438 C 394.59375 830.769531 394.585938 831.054688 394.679688 831.300781 C 394.722656 831.417969 394.78125 831.527344 394.847656 831.628906 C 395.015625 831.875 395.230469 832.078125 395.480469 832.246094 C 395.632812 832.355469 395.800781 832.449219 395.96875 832.535156 C 396.132812 832.617188 396.308594 832.695312 396.492188 832.761719 C 396.460938 832.871094 396.445312 832.972656 396.445312 833.082031 C 396.445312 833.546875 396.722656 834.011719 397.285156 834.414062 C 397.917969 832.945312 399.808594 831.707031 402.367188 831.003906 L 396.964844 836.609375 L 402.578125 831.199219 C 401.875 833.765625 400.636719 835.65625 399.160156 836.289062 C 399.558594 836.851562 400.027344 837.128906 400.492188 837.128906 C 400.601562 837.128906 400.703125 837.113281 400.8125 837.082031 C 400.875 837.265625 400.957031 837.441406 401.035156 837.605469 C 401.125 837.773438 401.21875 837.941406 401.328125 838.09375 C 401.496094 838.335938 401.699219 838.558594 401.945312 838.726562 C 402.046875 838.792969 402.15625 838.851562 402.273438 838.894531 C 402.519531 838.980469 402.804688 838.980469 403.050781 838.894531 C 403.300781 838.808594 403.515625 838.640625 403.699219 838.449219 C 403.933594 838.203125 404.121094 837.914062 404.273438 837.613281 C 404.355469 837.445312 404.433594 837.273438 404.5 837.089844 C 404.609375 837.121094 404.710938 837.132812 404.820312 837.132812 C 405.285156 837.132812 405.75 836.859375 406.152344 836.296875 C 404.679688 835.671875 403.453125 833.789062 402.738281 831.234375 L 408.324219 836.617188 L 402.90625 830.996094 C 405.480469 831.699219 407.386719 832.945312 408.019531 834.421875 C 408.578125 834.019531 408.855469 833.554688 408.855469 833.089844 C 408.855469 832.980469 408.84375 832.878906 408.8125 832.769531 C 408.996094 832.703125 409.167969 832.625 409.335938 832.542969 C 409.640625 832.390625 409.933594 832.210938 410.171875 831.96875 C 410.363281 831.789062 410.523438 831.570312 410.617188 831.320312 C 410.703125 831.074219 410.710938 830.792969 410.617188 830.542969 C 410.574219 830.425781 410.515625 830.320312 410.449219 830.214844 Z M 410.464844 830.203125 " fill-opacity="1" fill-rule="nonzero"/></g></svg>