<svg xmlns="http://www.w3.org/2000/svg" xmlns:xlink="http://www.w3.org/1999/xlink" width="1080" zoomAndPan="magnify" viewBox="0 0 810 1439.999935" height="1920" preserveAspectRatio="xMidYMid meet" version="1.0"><defs><clipPath id="fde9070a61"><path d="M 394 430.941406 L 411 430.941406 L 411 447.441406 L 394 447.441406 Z M 394 430.941406 " clip-rule="nonzero"/></clipPath></defs><path fill="#151516" d="M 391.222656 440.761719 L 391.222656 439.6875 L 325.996094 438.980469 L 391.222656 438.273438 L 391.222656 437.199219 L 226.464844 438.980469 Z M 391.222656 440.761719 " fill-opacity="1" fill-rule="nonzero"/><path fill="#151516" d="M 414.09375 437.199219 L 414.09375 438.273438 L 479.328125 438.980469 L 414.09375 439.6875 L 414.09375 440.761719 L 578.859375 438.980469 Z M 414.09375 437.199219 " fill-opacity="1" fill-rule="nonzero"/><g clip-path="url(#fde9070a61)"><path fill="#151516" d="M 410.464844 438.265625 C 410.296875 438.019531 410.078125 437.816406 409.832031 437.648438 C 409.679688 437.539062 409.511719 437.445312 409.34375 437.359375 C 409.175781 437.277344 409 437.199219 408.820312 437.132812 C 408.847656 437.023438 408.863281 436.921875 408.863281 436.8125 C 408.863281 436.347656 408.585938 435.882812 408.027344 435.480469 C 407.394531 436.949219 405.503906 438.195312 402.933594 438.898438 L 408.324219 433.304688 L 402.730469 438.695312 C 403.4375 436.136719 404.675781 434.246094 406.144531 433.613281 C 405.742188 433.050781 405.277344 432.777344 404.8125 432.777344 C 404.703125 432.777344 404.601562 432.789062 404.492188 432.820312 C 404.425781 432.636719 404.347656 432.460938 404.265625 432.296875 C 404.113281 431.988281 403.933594 431.699219 403.691406 431.457031 C 403.511719 431.269531 403.292969 431.109375 403.042969 431.015625 C 402.796875 430.929688 402.511719 430.921875 402.265625 431.015625 C 402.148438 431.058594 402.039062 431.117188 401.9375 431.183594 C 401.691406 431.351562 401.488281 431.566406 401.320312 431.816406 C 401.210938 431.96875 401.117188 432.136719 401.03125 432.304688 C 400.949219 432.46875 400.871094 432.644531 400.804688 432.828125 C 400.695312 432.796875 400.59375 432.78125 400.484375 432.78125 C 400.019531 432.78125 399.554688 433.058594 399.152344 433.621094 C 400.628906 434.253906 401.875 436.15625 402.578125 438.734375 L 396.957031 433.3125 L 402.339844 438.898438 C 399.792969 438.195312 397.910156 436.957031 397.277344 435.488281 C 396.714844 435.890625 396.441406 436.355469 396.441406 436.820312 C 396.441406 436.929688 396.453125 437.03125 396.484375 437.140625 C 396.300781 437.207031 396.125 437.285156 395.960938 437.367188 C 395.652344 437.519531 395.363281 437.699219 395.121094 437.941406 C 394.933594 438.121094 394.773438 438.339844 394.679688 438.585938 C 394.59375 438.835938 394.585938 439.117188 394.679688 439.367188 C 394.722656 439.480469 394.78125 439.589844 394.847656 439.691406 C 395.015625 439.941406 395.230469 440.144531 395.480469 440.3125 C 395.632812 440.421875 395.800781 440.515625 395.96875 440.601562 C 396.132812 440.683594 396.308594 440.761719 396.492188 440.828125 C 396.460938 440.9375 396.445312 441.039062 396.445312 441.148438 C 396.445312 441.613281 396.722656 442.078125 397.285156 442.480469 C 397.917969 441.011719 399.808594 439.773438 402.367188 439.066406 L 396.964844 444.675781 L 402.578125 439.265625 C 401.875 441.832031 400.636719 443.722656 399.160156 444.355469 C 399.558594 444.914062 400.027344 445.191406 400.492188 445.191406 C 400.601562 445.191406 400.703125 445.179688 400.8125 445.148438 C 400.875 445.332031 400.957031 445.503906 401.035156 445.671875 C 401.125 445.839844 401.21875 446.007812 401.328125 446.160156 C 401.496094 446.398438 401.699219 446.625 401.945312 446.792969 C 402.046875 446.859375 402.15625 446.917969 402.273438 446.960938 C 402.519531 447.046875 402.804688 447.046875 403.050781 446.960938 C 403.300781 446.871094 403.515625 446.707031 403.699219 446.515625 C 403.933594 446.269531 404.121094 445.976562 404.273438 445.679688 C 404.355469 445.511719 404.433594 445.335938 404.5 445.15625 C 404.609375 445.183594 404.710938 445.199219 404.820312 445.199219 C 405.285156 445.199219 405.75 444.921875 406.152344 444.363281 C 404.679688 443.738281 403.453125 441.855469 402.738281 439.300781 L 408.324219 444.683594 L 402.90625 439.058594 C 405.480469 439.765625 407.386719 441.011719 408.019531 442.488281 C 408.578125 442.085938 408.855469 441.621094 408.855469 441.15625 C 408.855469 441.046875 408.84375 440.945312 408.8125 440.835938 C 408.996094 440.769531 409.167969 440.691406 409.335938 440.609375 C 409.640625 440.457031 409.933594 440.273438 410.171875 440.035156 C 410.363281 439.851562 410.523438 439.636719 410.617188 439.386719 C 410.703125 439.140625 410.710938 438.855469 410.617188 438.609375 C 410.574219 438.492188 410.515625 438.382812 410.449219 438.28125 Z M 410.464844 438.265625 " fill-opacity="1" fill-rule="nonzero"/></g></svg>