<svg xmlns="http://www.w3.org/2000/svg" xmlns:xlink="http://www.w3.org/1999/xlink" width="1080" zoomAndPan="magnify" viewBox="0 0 810 1439.999935" height="1920" preserveAspectRatio="xMidYMid meet" version="1.0"><defs><g/></defs><g fill="#151516" fill-opacity="1"><g transform="translate(272.203017, 753.607115)"><g><path d="M 17.65625 0 L 1.765625 0 L 1.765625 -0.59375 C 3.453125 -0.59375 4.675781 -1.101562 5.4375 -2.125 C 6.207031 -3.144531 6.691406 -4.8125 6.890625 -7.125 C 7.085938 -9.4375 7.1875 -12.519531 7.1875 -16.375 L 7.1875 -42.5 C 7.1875 -46.394531 7.085938 -49.488281 6.890625 -51.78125 C 6.691406 -54.070312 6.207031 -55.726562 5.4375 -56.75 C 4.675781 -57.769531 3.453125 -58.28125 1.765625 -58.28125 L 1.765625 -58.875 L 17.65625 -58.875 L 17.65625 -58.28125 C 15.96875 -58.28125 14.738281 -57.769531 13.96875 -56.75 C 13.207031 -55.726562 12.726562 -54.070312 12.53125 -51.78125 C 12.34375 -49.488281 12.25 -46.394531 12.25 -42.5 L 12.25 -32.203125 C 12.601562 -32.984375 13.382812 -33.753906 14.59375 -34.515625 C 15.8125 -35.285156 17.304688 -35.671875 19.078125 -35.671875 C 21.035156 -35.671875 22.894531 -35.367188 24.65625 -34.765625 C 26.425781 -34.160156 28.15625 -33.550781 29.84375 -32.9375 C 31.53125 -32.332031 33.238281 -32.03125 34.96875 -32.03125 C 36.101562 -32.03125 37.113281 -32.332031 38 -32.9375 C 38.882812 -33.550781 39.328125 -34.367188 39.328125 -35.390625 L 39.921875 -35.390625 C 39.921875 -33.660156 39.242188 -32.144531 37.890625 -30.84375 C 36.535156 -29.550781 34.695312 -28.90625 32.375 -28.90625 C 30.570312 -28.90625 28.925781 -29.171875 27.4375 -29.703125 C 25.945312 -30.234375 24.550781 -30.832031 23.25 -31.5 C 21.957031 -32.164062 20.75 -32.765625 19.625 -33.296875 C 18.507812 -33.828125 17.425781 -34.09375 16.375 -34.09375 C 14.84375 -34.09375 13.769531 -33.570312 13.15625 -32.53125 C 12.550781 -31.488281 12.25 -30.28125 12.25 -28.90625 L 12.25 -16.375 C 12.25 -12.519531 12.34375 -9.4375 12.53125 -7.125 C 12.726562 -4.8125 13.207031 -3.144531 13.96875 -2.125 C 14.738281 -1.101562 15.96875 -0.59375 17.65625 -0.59375 Z M 36.265625 -58.28125 L 36.265625 -58.875 L 52.15625 -58.875 L 52.15625 -58.28125 C 50.46875 -58.28125 49.238281 -57.769531 48.46875 -56.75 C 47.707031 -55.726562 47.226562 -54.070312 47.03125 -51.78125 C 46.84375 -49.488281 46.75 -46.394531 46.75 -42.5 L 46.75 -16.375 C 46.75 -12.519531 46.84375 -9.4375 47.03125 -7.125 C 47.226562 -4.8125 47.707031 -3.144531 48.46875 -2.125 C 49.238281 -1.101562 50.46875 -0.59375 52.15625 -0.59375 L 52.15625 0 L 36.265625 0 L 36.265625 -0.59375 C 37.953125 -0.59375 39.175781 -1.101562 39.9375 -2.125 C 40.707031 -3.144531 41.191406 -4.8125 41.390625 -7.125 C 41.585938 -9.4375 41.6875 -12.519531 41.6875 -16.375 L 41.6875 -42.5 C 41.6875 -46.394531 41.585938 -49.488281 41.390625 -51.78125 C 41.191406 -54.070312 40.707031 -55.726562 39.9375 -56.75 C 39.175781 -57.769531 37.953125 -58.28125 36.265625 -58.28125 Z M 36.265625 -58.28125 "/></g></g></g><g fill="#151516" fill-opacity="1"><g transform="translate(340.969701, 753.607115)"><g><path d="M 3.53125 -11.890625 C 3.53125 -14.835938 4.066406 -17.28125 5.140625 -19.21875 C 6.222656 -21.164062 7.644531 -22.742188 9.40625 -23.953125 C 11.175781 -25.171875 13.117188 -26.144531 15.234375 -26.875 C 17.359375 -27.601562 19.476562 -28.210938 21.59375 -28.703125 C 23.71875 -29.191406 25.660156 -29.703125 27.421875 -30.234375 C 29.191406 -30.765625 30.617188 -31.441406 31.703125 -32.265625 C 32.785156 -33.085938 33.328125 -34.1875 33.328125 -35.5625 C 33.328125 -37.164062 32.796875 -38.457031 31.734375 -39.4375 C 30.671875 -40.425781 29.351562 -41.144531 27.78125 -41.59375 C 26.21875 -42.039062 24.628906 -42.265625 23.015625 -42.265625 C 21.171875 -42.265625 19.40625 -42.039062 17.71875 -41.59375 C 16.03125 -41.144531 14.65625 -40.421875 13.59375 -39.421875 C 12.539062 -38.421875 12.015625 -37.09375 12.015625 -35.4375 C 12.015625 -34.34375 12.335938 -33.550781 12.984375 -33.0625 C 13.628906 -32.570312 14.085938 -32.460938 14.359375 -32.734375 C 14.679688 -31.867188 14.457031 -31.082031 13.6875 -30.375 C 12.925781 -29.664062 12.050781 -29.3125 11.0625 -29.3125 C 9.8125 -29.3125 8.789062 -29.78125 8 -30.71875 C 7.21875 -31.664062 6.828125 -32.769531 6.828125 -34.03125 C 6.828125 -35.988281 7.53125 -37.613281 8.9375 -38.90625 C 10.351562 -40.207031 12.285156 -41.191406 14.734375 -41.859375 C 17.191406 -42.523438 19.953125 -42.859375 23.015625 -42.859375 C 24.671875 -42.859375 26.390625 -42.691406 28.171875 -42.359375 C 29.953125 -42.023438 31.609375 -41.535156 33.140625 -40.890625 C 34.671875 -40.242188 35.914062 -39.46875 36.875 -38.5625 C 37.84375 -37.65625 38.328125 -36.613281 38.328125 -35.4375 C 38.328125 -34.257812 37.914062 -33.316406 37.09375 -32.609375 C 36.269531 -31.910156 35.148438 -31.351562 33.734375 -30.9375 C 32.316406 -30.53125 30.722656 -30.148438 28.953125 -29.796875 C 27.191406 -29.441406 25.378906 -29.035156 23.515625 -28.578125 C 21.648438 -28.128906 19.832031 -27.507812 18.0625 -26.71875 C 16.300781 -25.9375 14.710938 -24.914062 13.296875 -23.65625 C 11.890625 -22.40625 10.773438 -20.789062 9.953125 -18.8125 C 9.128906 -16.832031 8.71875 -14.410156 8.71875 -11.546875 C 8.71875 -9.503906 9.117188 -7.664062 9.921875 -6.03125 C 10.722656 -4.40625 11.847656 -3.117188 13.296875 -2.171875 C 14.753906 -1.234375 16.445312 -0.765625 18.375 -0.765625 C 19.976562 -0.765625 21.613281 -1.195312 23.28125 -2.0625 C 24.945312 -2.925781 26.503906 -4.300781 27.953125 -6.1875 C 29.410156 -8.070312 30.582031 -10.515625 31.46875 -13.515625 C 32.351562 -16.515625 32.796875 -20.15625 32.796875 -24.4375 C 32.796875 -25.101562 32.734375 -25.71875 32.609375 -26.28125 C 32.492188 -26.851562 32.222656 -27.195312 31.796875 -27.3125 C 31.796875 -27.507812 31.941406 -27.695312 32.234375 -27.875 C 32.523438 -28.050781 32.90625 -28.140625 33.375 -28.140625 C 34.832031 -28.140625 35.894531 -27.695312 36.5625 -26.8125 C 37.226562 -25.9375 37.664062 -24.800781 37.875 -23.40625 C 38.09375 -22.007812 38.203125 -20.523438 38.203125 -18.953125 C 38.203125 -17.660156 38.203125 -16.570312 38.203125 -15.6875 C 38.203125 -14.800781 38.210938 -13.957031 38.234375 -13.15625 C 38.253906 -12.351562 38.265625 -11.453125 38.265625 -10.453125 C 38.265625 -9.453125 38.265625 -8.164062 38.265625 -6.59375 C 38.265625 -4.945312 38.53125 -3.691406 39.0625 -2.828125 C 39.59375 -1.960938 40.210938 -1.375 40.921875 -1.0625 C 41.628906 -0.75 42.238281 -0.59375 42.75 -0.59375 L 42.75 0 L 38.5625 0 C 36.988281 0 35.660156 -0.664062 34.578125 -2 C 33.503906 -3.332031 32.96875 -5.097656 32.96875 -7.296875 L 32.96875 -17.375 C 32.457031 -14.851562 31.789062 -12.472656 30.96875 -10.234375 C 30.144531 -8.003906 29.113281 -6.023438 27.875 -4.296875 C 26.632812 -2.566406 25.101562 -1.222656 23.28125 -0.265625 C 21.457031 0.691406 19.25 1.171875 16.65625 1.171875 C 14.144531 1.171875 11.898438 0.613281 9.921875 -0.5 C 7.941406 -1.613281 6.378906 -3.160156 5.234375 -5.140625 C 4.097656 -7.128906 3.53125 -9.378906 3.53125 -11.890625 Z M 3.53125 -11.890625 "/></g></g></g><g fill="#151516" fill-opacity="1"><g transform="translate(399.727623, 753.607115)"><g><path d="M 20.1875 0 L 1.765625 0 L 1.765625 -0.59375 C 3.453125 -0.59375 4.675781 -1.101562 5.4375 -2.125 C 6.207031 -3.144531 6.691406 -4.8125 6.890625 -7.125 C 7.085938 -9.4375 7.1875 -12.519531 7.1875 -16.375 L 7.1875 -42.5 C 7.1875 -46.394531 7.085938 -49.488281 6.890625 -51.78125 C 6.691406 -54.070312 6.207031 -55.726562 5.4375 -56.75 C 4.675781 -57.769531 3.453125 -58.28125 1.765625 -58.28125 L 1.765625 -58.875 L 12.25 -58.875 L 12.25 -34.796875 C 15.820312 -40.171875 20.585938 -42.859375 26.546875 -42.859375 C 29.847656 -42.859375 32.789062 -42.125 35.375 -40.65625 C 37.96875 -39.1875 40.019531 -37.085938 41.53125 -34.359375 C 43.039062 -31.628906 43.796875 -28.378906 43.796875 -24.609375 C 43.796875 -19.390625 42.773438 -14.941406 40.734375 -11.265625 C 38.703125 -7.597656 35.910156 -4.800781 32.359375 -2.875 C 28.804688 -0.957031 24.75 0 20.1875 0 Z M 12.25 -25.734375 L 12.25 -2.171875 C 13.269531 -1.703125 14.359375 -1.320312 15.515625 -1.03125 C 16.671875 -0.738281 17.992188 -0.59375 19.484375 -0.59375 C 21.992188 -0.59375 24.40625 -1.171875 26.71875 -2.328125 C 29.039062 -3.484375 31.101562 -5.097656 32.90625 -7.171875 C 34.71875 -9.253906 36.140625 -11.671875 37.171875 -14.421875 C 38.210938 -17.171875 38.734375 -20.15625 38.734375 -23.375 C 38.734375 -26.664062 38.300781 -29.46875 37.4375 -31.78125 C 36.582031 -34.101562 35.4375 -35.96875 34 -37.375 C 32.5625 -38.789062 30.96875 -39.820312 29.21875 -40.46875 C 27.476562 -41.125 25.742188 -41.453125 24.015625 -41.453125 C 22.015625 -41.453125 20.113281 -40.953125 18.3125 -39.953125 C 16.507812 -38.953125 15.046875 -37.300781 13.921875 -35 C 12.804688 -32.707031 12.25 -29.617188 12.25 -25.734375 Z M 12.25 -25.734375 "/></g></g></g><g fill="#151516" fill-opacity="1"><g transform="translate(461.900301, 753.607115)"><g><path d="M 17.65625 0 L 1.765625 0 L 1.765625 -0.59375 C 3.453125 -0.59375 4.675781 -1.101562 5.4375 -2.125 C 6.207031 -3.144531 6.691406 -4.8125 6.890625 -7.125 C 7.085938 -9.4375 7.1875 -12.519531 7.1875 -16.375 L 7.1875 -25.3125 C 7.1875 -29.195312 7.085938 -32.285156 6.890625 -34.578125 C 6.691406 -36.878906 6.207031 -38.539062 5.4375 -39.5625 C 4.675781 -40.582031 3.453125 -41.09375 1.765625 -41.09375 L 1.765625 -41.6875 L 12.25 -41.6875 L 12.25 -16.375 C 12.25 -12.519531 12.34375 -9.4375 12.53125 -7.125 C 12.726562 -4.8125 13.207031 -3.144531 13.96875 -2.125 C 14.738281 -1.101562 15.96875 -0.59375 17.65625 -0.59375 Z M 5.46875 -49.390625 C 5.46875 -50.492188 5.847656 -51.425781 6.609375 -52.1875 C 7.378906 -52.957031 8.316406 -53.34375 9.421875 -53.34375 C 10.515625 -53.34375 11.441406 -52.957031 12.203125 -52.1875 C 12.972656 -51.425781 13.359375 -50.492188 13.359375 -49.390625 C 13.359375 -48.296875 12.972656 -47.363281 12.203125 -46.59375 C 11.441406 -45.832031 10.515625 -45.453125 9.421875 -45.453125 C 8.316406 -45.453125 7.378906 -45.832031 6.609375 -46.59375 C 5.847656 -47.363281 5.46875 -48.296875 5.46875 -49.390625 Z M 5.46875 -49.390625 "/></g></g></g><g fill="#151516" fill-opacity="1"><g transform="translate(495.577479, 753.607115)"><g><path d="M 20.1875 0 L 1.765625 0 L 1.765625 -0.59375 C 3.453125 -0.59375 4.675781 -1.101562 5.4375 -2.125 C 6.207031 -3.144531 6.691406 -4.8125 6.890625 -7.125 C 7.085938 -9.4375 7.1875 -12.519531 7.1875 -16.375 L 7.1875 -42.5 C 7.1875 -46.394531 7.085938 -49.488281 6.890625 -51.78125 C 6.691406 -54.070312 6.207031 -55.726562 5.4375 -56.75 C 4.675781 -57.769531 3.453125 -58.28125 1.765625 -58.28125 L 1.765625 -58.875 L 12.25 -58.875 L 12.25 -34.796875 C 15.820312 -40.171875 20.585938 -42.859375 26.546875 -42.859375 C 29.847656 -42.859375 32.789062 -42.125 35.375 -40.65625 C 37.96875 -39.1875 40.019531 -37.085938 41.53125 -34.359375 C 43.039062 -31.628906 43.796875 -28.378906 43.796875 -24.609375 C 43.796875 -19.390625 42.773438 -14.941406 40.734375 -11.265625 C 38.703125 -7.597656 35.910156 -4.800781 32.359375 -2.875 C 28.804688 -0.957031 24.75 0 20.1875 0 Z M 12.25 -25.734375 L 12.25 -2.171875 C 13.269531 -1.703125 14.359375 -1.320312 15.515625 -1.03125 C 16.671875 -0.738281 17.992188 -0.59375 19.484375 -0.59375 C 21.992188 -0.59375 24.40625 -1.171875 26.71875 -2.328125 C 29.039062 -3.484375 31.101562 -5.097656 32.90625 -7.171875 C 34.71875 -9.253906 36.140625 -11.671875 37.171875 -14.421875 C 38.210938 -17.171875 38.734375 -20.15625 38.734375 -23.375 C 38.734375 -26.664062 38.300781 -29.46875 37.4375 -31.78125 C 36.582031 -34.101562 35.4375 -35.96875 34 -37.375 C 32.5625 -38.789062 30.96875 -39.820312 29.21875 -40.46875 C 27.476562 -41.125 25.742188 -41.453125 24.015625 -41.453125 C 22.015625 -41.453125 20.113281 -40.953125 18.3125 -39.953125 C 16.507812 -38.953125 15.046875 -37.300781 13.921875 -35 C 12.804688 -32.707031 12.25 -29.617188 12.25 -25.734375 Z M 12.25 -25.734375 "/></g></g></g></svg>