<svg xmlns="http://www.w3.org/2000/svg" xmlns:xlink="http://www.w3.org/1999/xlink" width="1080" zoomAndPan="magnify" viewBox="0 0 810 1439.999935" height="1920" preserveAspectRatio="xMidYMid meet" version="1.0"><defs><g/></defs><g fill="#2c2a4a" fill-opacity="1"><g transform="translate(197.062362, 364.218436)"><g><path d="M 0.78125 -25.671875 L 0.78125 -25.9375 L 7.78125 -25.9375 L 7.78125 -25.671875 C 7.039062 -25.671875 6.5 -25.445312 6.15625 -25 C 5.820312 -24.550781 5.609375 -23.820312 5.515625 -22.8125 C 5.429688 -21.800781 5.390625 -20.441406 5.390625 -18.734375 L 5.390625 -7.203125 C 5.390625 -5.523438 5.679688 -4.132812 6.265625 -3.03125 C 6.847656 -1.925781 7.628906 -1.097656 8.609375 -0.546875 C 9.597656 -0.00390625 10.707031 0.265625 11.9375 0.265625 C 13.15625 0.265625 14.25 -0.0078125 15.21875 -0.5625 C 16.1875 -1.125 16.953125 -1.957031 17.515625 -3.0625 C 18.078125 -4.164062 18.359375 -5.546875 18.359375 -7.203125 L 18.359375 -18.734375 C 18.359375 -20.441406 18.316406 -21.800781 18.234375 -22.8125 C 18.148438 -23.820312 17.9375 -24.550781 17.59375 -25 C 17.257812 -25.445312 16.722656 -25.671875 15.984375 -25.671875 L 15.984375 -25.9375 L 22.984375 -25.9375 L 22.984375 -25.671875 C 22.234375 -25.671875 21.691406 -25.445312 21.359375 -25 C 21.023438 -24.550781 20.8125 -23.820312 20.71875 -22.8125 C 20.632812 -21.800781 20.59375 -20.441406 20.59375 -18.734375 L 20.59375 -7.203125 C 20.59375 -5.472656 20.203125 -4.035156 19.421875 -2.890625 C 18.648438 -1.753906 17.601562 -0.898438 16.28125 -0.328125 C 14.96875 0.230469 13.519531 0.515625 11.9375 0.515625 C 10.34375 0.515625 8.878906 0.230469 7.546875 -0.328125 C 6.210938 -0.890625 5.148438 -1.738281 4.359375 -2.875 C 3.566406 -4.019531 3.171875 -5.460938 3.171875 -7.203125 L 3.171875 -18.734375 C 3.171875 -20.441406 3.125 -21.800781 3.03125 -22.8125 C 2.945312 -23.820312 2.734375 -24.550781 2.390625 -25 C 2.054688 -25.445312 1.519531 -25.671875 0.78125 -25.671875 Z M 0.78125 -25.671875 "/></g></g></g><g fill="#2c2a4a" fill-opacity="1"><g transform="translate(221.076916, 364.218436)"><g><path d="M 0.78125 -25.9375 L 5.3125 -25.9375 L 19.84375 -3.78125 L 19.84375 -15.09375 C 19.84375 -17.613281 19.632812 -19.648438 19.21875 -21.203125 C 18.800781 -22.753906 18.257812 -23.882812 17.59375 -24.59375 C 16.925781 -25.3125 16.222656 -25.671875 15.484375 -25.671875 L 15.484375 -25.9375 L 22.484375 -25.9375 L 22.484375 -25.671875 C 21.742188 -25.671875 21.203125 -25.445312 20.859375 -25 C 20.523438 -24.550781 20.316406 -23.820312 20.234375 -22.8125 C 20.148438 -21.800781 20.109375 -20.441406 20.109375 -18.734375 L 20.109375 0.515625 L 19.84375 0.515625 L 3.421875 -24.484375 L 3.421875 -10.84375 C 3.421875 -8.332031 3.628906 -6.296875 4.046875 -4.734375 C 4.460938 -3.179688 5.003906 -2.046875 5.671875 -1.328125 C 6.335938 -0.617188 7.039062 -0.265625 7.78125 -0.265625 L 7.78125 0 L 0.78125 0 L 0.78125 -0.265625 C 1.519531 -0.265625 2.054688 -0.488281 2.390625 -0.9375 C 2.734375 -1.382812 2.945312 -2.117188 3.03125 -3.140625 C 3.125 -4.160156 3.171875 -5.515625 3.171875 -7.203125 L 3.171875 -18.734375 C 3.171875 -20.441406 3.125 -21.800781 3.03125 -22.8125 C 2.945312 -23.820312 2.734375 -24.550781 2.390625 -25 C 2.054688 -25.445312 1.519531 -25.671875 0.78125 -25.671875 Z M 0.78125 -25.9375 "/></g></g></g><g fill="#2c2a4a" fill-opacity="1"><g transform="translate(244.598735, 364.218436)"><g><path d="M 0.78125 0 L 0.78125 -0.265625 C 1.519531 -0.265625 2.054688 -0.488281 2.390625 -0.9375 C 2.734375 -1.382812 2.945312 -2.117188 3.03125 -3.140625 C 3.125 -4.160156 3.171875 -5.515625 3.171875 -7.203125 L 3.171875 -18.734375 C 3.171875 -20.441406 3.125 -21.800781 3.03125 -22.8125 C 2.945312 -23.820312 2.734375 -24.550781 2.390625 -25 C 2.054688 -25.445312 1.519531 -25.671875 0.78125 -25.671875 L 0.78125 -25.9375 L 2.859375 -25.9375 C 4.222656 -25.9375 5.484375 -26.019531 6.640625 -26.1875 C 7.796875 -26.363281 8.945312 -26.453125 10.09375 -26.453125 C 12.09375 -26.453125 13.828125 -26.085938 15.296875 -25.359375 C 16.773438 -24.640625 18 -23.644531 18.96875 -22.375 C 19.945312 -21.113281 20.671875 -19.675781 21.140625 -18.0625 C 21.617188 -16.445312 21.859375 -14.75 21.859375 -12.96875 C 21.859375 -11.1875 21.617188 -9.488281 21.140625 -7.875 C 20.671875 -6.257812 19.945312 -4.816406 18.96875 -3.546875 C 18 -2.285156 16.773438 -1.289062 15.296875 -0.5625 C 13.828125 0.152344 12.09375 0.515625 10.09375 0.515625 C 8.945312 0.515625 7.796875 0.425781 6.640625 0.25 C 5.484375 0.0820312 4.222656 0 2.859375 0 Z M 5.375 -25.359375 L 5.375 -0.578125 C 6.132812 -0.347656 6.894531 -0.164062 7.65625 -0.03125 C 8.414062 0.09375 9.21875 0.15625 10.0625 0.15625 C 11.664062 0.15625 13.066406 -0.1875 14.265625 -0.875 C 15.460938 -1.570312 16.457031 -2.53125 17.25 -3.75 C 18.039062 -4.96875 18.632812 -6.367188 19.03125 -7.953125 C 19.4375 -9.535156 19.640625 -11.207031 19.640625 -12.96875 C 19.640625 -14.726562 19.4375 -16.398438 19.03125 -17.984375 C 18.632812 -19.566406 18.039062 -20.96875 17.25 -22.1875 C 16.457031 -23.40625 15.460938 -24.359375 14.265625 -25.046875 C 13.066406 -25.742188 11.664062 -26.09375 10.0625 -26.09375 C 9.21875 -26.09375 8.414062 -26.03125 7.65625 -25.90625 C 6.894531 -25.789062 6.132812 -25.609375 5.375 -25.359375 Z M 5.375 -25.359375 "/></g></g></g><g fill="#2c2a4a" fill-opacity="1"><g transform="translate(268.276158, 364.218436)"><g><path d="M 0.78125 -4.546875 C 0.78125 -5.609375 1.03125 -6.566406 1.53125 -7.421875 C 2.03125 -8.285156 2.671875 -9.066406 3.453125 -9.765625 C 4.242188 -10.460938 5.078125 -11.097656 5.953125 -11.671875 C 6.835938 -12.253906 7.675781 -12.789062 8.46875 -13.28125 C 9.257812 -13.78125 9.90625 -14.253906 10.40625 -14.703125 C 10.90625 -15.148438 11.15625 -15.601562 11.15625 -16.0625 C 11.15625 -16.300781 11.09375 -16.472656 10.96875 -16.578125 C 10.851562 -16.691406 10.707031 -16.75 10.53125 -16.75 C 10.21875 -16.75 9.925781 -16.609375 9.65625 -16.328125 C 9.394531 -16.054688 9.132812 -15.742188 8.875 -15.390625 C 8.613281 -15.035156 8.332031 -14.71875 8.03125 -14.4375 C 7.726562 -14.164062 7.394531 -14.03125 7.03125 -14.03125 C 6.664062 -14.03125 6.441406 -14.175781 6.359375 -14.46875 C 6.285156 -14.769531 6.3125 -15.082031 6.4375 -15.40625 C 6.832031 -16.445312 7.191406 -17.410156 7.515625 -18.296875 C 7.847656 -19.191406 8.171875 -20.054688 8.484375 -20.890625 C 8.804688 -21.734375 9.132812 -22.601562 9.46875 -23.5 C 9.8125 -24.394531 10.191406 -25.378906 10.609375 -26.453125 L 10.875 -26.453125 L 19.171875 -4.546875 C 19.742188 -3.117188 20.28125 -2.046875 20.78125 -1.328125 C 21.28125 -0.617188 21.925781 -0.265625 22.71875 -0.265625 L 22.71875 0 L 14.21875 0 L 14.21875 -0.265625 C 15.132812 -0.265625 15.828125 -0.382812 16.296875 -0.625 C 16.773438 -0.863281 17.082031 -1.195312 17.21875 -1.625 C 17.363281 -2.0625 17.382812 -2.566406 17.28125 -3.140625 C 17.175781 -3.710938 17 -4.328125 16.75 -4.984375 L 13.546875 -13.46875 C 13.640625 -12.632812 13.6875 -11.59375 13.6875 -10.34375 C 13.6875 -8.25 13.363281 -6.378906 12.71875 -4.734375 C 12.070312 -3.097656 11.140625 -1.8125 9.921875 -0.875 C 8.703125 0.0507812 7.226562 0.515625 5.5 0.515625 C 4.5 0.515625 3.644531 0.285156 2.9375 -0.171875 C 2.238281 -0.640625 1.703125 -1.257812 1.328125 -2.03125 C 0.960938 -2.800781 0.78125 -3.640625 0.78125 -4.546875 Z M 2.984375 -5.03125 C 2.984375 -3.820312 3.34375 -2.800781 4.0625 -1.96875 C 4.789062 -1.132812 5.789062 -0.71875 7.0625 -0.71875 C 8.144531 -0.71875 9.082031 -1.007812 9.875 -1.59375 C 10.675781 -2.1875 11.335938 -2.957031 11.859375 -3.90625 C 12.390625 -4.863281 12.785156 -5.90625 13.046875 -7.03125 C 13.304688 -8.15625 13.4375 -9.242188 13.4375 -10.296875 C 13.4375 -11.265625 13.40625 -12.128906 13.34375 -12.890625 C 13.28125 -13.648438 13.128906 -14.410156 12.890625 -15.171875 L 9.75 -23.453125 L 6.765625 -15.515625 C 6.597656 -15.066406 6.550781 -14.75 6.625 -14.5625 C 6.707031 -14.382812 6.851562 -14.296875 7.0625 -14.296875 C 7.351562 -14.296875 7.632812 -14.429688 7.90625 -14.703125 C 8.1875 -14.984375 8.460938 -15.300781 8.734375 -15.65625 C 9.015625 -16.007812 9.304688 -16.320312 9.609375 -16.59375 C 9.910156 -16.875 10.234375 -17.015625 10.578125 -17.015625 C 10.828125 -17.015625 11.03125 -16.929688 11.1875 -16.765625 C 11.351562 -16.597656 11.4375 -16.34375 11.4375 -16 C 11.4375 -15.425781 11.234375 -14.898438 10.828125 -14.421875 C 10.421875 -13.953125 9.894531 -13.492188 9.25 -13.046875 C 8.613281 -12.597656 7.929688 -12.125 7.203125 -11.625 C 6.484375 -11.125 5.800781 -10.566406 5.15625 -9.953125 C 4.519531 -9.335938 4 -8.628906 3.59375 -7.828125 C 3.1875 -7.035156 2.984375 -6.101562 2.984375 -5.03125 Z M 2.984375 -5.03125 "/></g></g></g><g fill="#2c2a4a" fill-opacity="1"><g transform="translate(291.253375, 364.218436)"><g><path d="M 0.78125 -25.9375 L 5.3125 -25.9375 L 19.84375 -3.78125 L 19.84375 -15.09375 C 19.84375 -17.613281 19.632812 -19.648438 19.21875 -21.203125 C 18.800781 -22.753906 18.257812 -23.882812 17.59375 -24.59375 C 16.925781 -25.3125 16.222656 -25.671875 15.484375 -25.671875 L 15.484375 -25.9375 L 22.484375 -25.9375 L 22.484375 -25.671875 C 21.742188 -25.671875 21.203125 -25.445312 20.859375 -25 C 20.523438 -24.550781 20.316406 -23.820312 20.234375 -22.8125 C 20.148438 -21.800781 20.109375 -20.441406 20.109375 -18.734375 L 20.109375 0.515625 L 19.84375 0.515625 L 3.421875 -24.484375 L 3.421875 -10.84375 C 3.421875 -8.332031 3.628906 -6.296875 4.046875 -4.734375 C 4.460938 -3.179688 5.003906 -2.046875 5.671875 -1.328125 C 6.335938 -0.617188 7.039062 -0.265625 7.78125 -0.265625 L 7.78125 0 L 0.78125 0 L 0.78125 -0.265625 C 1.519531 -0.265625 2.054688 -0.488281 2.390625 -0.9375 C 2.734375 -1.382812 2.945312 -2.117188 3.03125 -3.140625 C 3.125 -4.160156 3.171875 -5.515625 3.171875 -7.203125 L 3.171875 -18.734375 C 3.171875 -20.441406 3.125 -21.800781 3.03125 -22.8125 C 2.945312 -23.820312 2.734375 -24.550781 2.390625 -25 C 2.054688 -25.445312 1.519531 -25.671875 0.78125 -25.671875 Z M 0.78125 -25.9375 "/></g></g></g><g fill="#2c2a4a" fill-opacity="1"><g transform="translate(314.775193, 364.218436)"><g><path d="M 1.5625 -12.96875 C 1.5625 -14.925781 1.851562 -16.71875 2.4375 -18.34375 C 3.019531 -19.976562 3.835938 -21.40625 4.890625 -22.625 C 5.953125 -23.84375 7.179688 -24.785156 8.578125 -25.453125 C 9.984375 -26.117188 11.488281 -26.453125 13.09375 -26.453125 C 14.6875 -26.453125 16.066406 -26.335938 17.234375 -26.109375 C 18.398438 -25.890625 19.484375 -25.609375 20.484375 -25.265625 L 20.484375 -21.78125 L 20.234375 -21.78125 C 20.234375 -21.78125 20.160156 -21.925781 20.015625 -22.21875 C 19.878906 -22.519531 19.644531 -22.882812 19.3125 -23.3125 C 18.988281 -23.75 18.554688 -24.179688 18.015625 -24.609375 C 17.472656 -25.046875 16.796875 -25.410156 15.984375 -25.703125 C 15.171875 -25.992188 14.207031 -26.140625 13.09375 -26.140625 C 11.75 -26.140625 10.515625 -25.8125 9.390625 -25.15625 C 8.265625 -24.5 7.289062 -23.578125 6.46875 -22.390625 C 5.644531 -21.210938 5.007812 -19.820312 4.5625 -18.21875 C 4.113281 -16.625 3.890625 -14.875 3.890625 -12.96875 C 3.890625 -11.082031 4.128906 -9.332031 4.609375 -7.71875 C 5.097656 -6.113281 5.765625 -4.71875 6.609375 -3.53125 C 7.460938 -2.351562 8.445312 -1.4375 9.5625 -0.78125 C 10.675781 -0.125 11.851562 0.203125 13.09375 0.203125 C 14.238281 0.203125 15.222656 0 16.046875 -0.40625 C 16.867188 -0.820312 17.546875 -1.316406 18.078125 -1.890625 C 18.609375 -2.460938 19 -3.015625 19.25 -3.546875 C 19.507812 -4.085938 19.640625 -4.46875 19.640625 -4.6875 L 19.640625 -8.359375 C 19.640625 -9.367188 19.460938 -10.164062 19.109375 -10.75 C 18.753906 -11.34375 18.28125 -11.773438 17.6875 -12.046875 C 17.101562 -12.328125 16.441406 -12.503906 15.703125 -12.578125 C 14.972656 -12.660156 14.222656 -12.691406 13.453125 -12.671875 C 12.679688 -12.660156 11.945312 -12.65625 11.25 -12.65625 C 10.632812 -12.65625 10.070312 -12.691406 9.5625 -12.765625 C 9.050781 -12.847656 8.644531 -13.019531 8.34375 -13.28125 C 8.039062 -13.539062 7.890625 -13.921875 7.890625 -14.421875 C 7.890625 -15.160156 8.109375 -15.769531 8.546875 -16.25 C 8.984375 -16.726562 9.507812 -17.085938 10.125 -17.328125 C 10.738281 -17.566406 11.304688 -17.6875 11.828125 -17.6875 C 12.796875 -17.6875 13.671875 -17.566406 14.453125 -17.328125 C 15.242188 -17.097656 15.988281 -16.820312 16.6875 -16.5 C 17.382812 -16.1875 18.097656 -15.910156 18.828125 -15.671875 C 19.554688 -15.441406 20.335938 -15.328125 21.171875 -15.328125 C 21.773438 -15.328125 22.207031 -15.390625 22.46875 -15.515625 C 22.738281 -15.648438 22.90625 -15.78125 22.96875 -15.90625 C 23.03125 -16.039062 23.0625 -16.109375 23.0625 -16.109375 C 23.195312 -15.566406 23.148438 -15.101562 22.921875 -14.71875 C 22.703125 -14.34375 22.367188 -14.054688 21.921875 -13.859375 C 21.472656 -13.660156 20.976562 -13.5625 20.4375 -13.5625 C 19.65625 -13.5625 18.859375 -13.6875 18.046875 -13.9375 C 17.234375 -14.1875 16.429688 -14.472656 15.640625 -14.796875 C 14.847656 -15.128906 14.078125 -15.421875 13.328125 -15.671875 C 12.585938 -15.929688 11.894531 -16.0625 11.25 -16.0625 C 10.457031 -16.0625 9.742188 -15.914062 9.109375 -15.625 C 8.484375 -15.34375 8.171875 -14.898438 8.171875 -14.296875 C 8.171875 -13.859375 8.347656 -13.539062 8.703125 -13.34375 C 9.054688 -13.144531 9.539062 -13.023438 10.15625 -12.984375 C 10.769531 -12.941406 11.460938 -12.925781 12.234375 -12.9375 C 13.003906 -12.957031 13.796875 -12.96875 14.609375 -12.96875 C 15.484375 -12.96875 16.351562 -12.921875 17.21875 -12.828125 C 18.082031 -12.734375 18.863281 -12.53125 19.5625 -12.21875 C 20.269531 -11.90625 20.828125 -11.441406 21.234375 -10.828125 C 21.648438 -10.210938 21.859375 -9.390625 21.859375 -8.359375 L 21.859375 -4.609375 C 20.878906 -2.984375 19.632812 -1.722656 18.125 -0.828125 C 16.625 0.0664062 14.945312 0.515625 13.09375 0.515625 C 11.488281 0.515625 9.984375 0.179688 8.578125 -0.484375 C 7.179688 -1.148438 5.953125 -2.09375 4.890625 -3.3125 C 3.835938 -4.53125 3.019531 -5.957031 2.4375 -7.59375 C 1.851562 -9.238281 1.5625 -11.03125 1.5625 -12.96875 Z M 1.5625 -12.96875 "/></g></g></g><g fill="#2c2a4a" fill-opacity="1"><g transform="translate(338.919422, 364.218436)"><g><path d="M 0.78125 -4.546875 C 0.78125 -5.609375 1.03125 -6.566406 1.53125 -7.421875 C 2.03125 -8.285156 2.671875 -9.066406 3.453125 -9.765625 C 4.242188 -10.460938 5.078125 -11.097656 5.953125 -11.671875 C 6.835938 -12.253906 7.675781 -12.789062 8.46875 -13.28125 C 9.257812 -13.78125 9.90625 -14.253906 10.40625 -14.703125 C 10.90625 -15.148438 11.15625 -15.601562 11.15625 -16.0625 C 11.15625 -16.300781 11.09375 -16.472656 10.96875 -16.578125 C 10.851562 -16.691406 10.707031 -16.75 10.53125 -16.75 C 10.21875 -16.75 9.925781 -16.609375 9.65625 -16.328125 C 9.394531 -16.054688 9.132812 -15.742188 8.875 -15.390625 C 8.613281 -15.035156 8.332031 -14.71875 8.03125 -14.4375 C 7.726562 -14.164062 7.394531 -14.03125 7.03125 -14.03125 C 6.664062 -14.03125 6.441406 -14.175781 6.359375 -14.46875 C 6.285156 -14.769531 6.3125 -15.082031 6.4375 -15.40625 C 6.832031 -16.445312 7.191406 -17.410156 7.515625 -18.296875 C 7.847656 -19.191406 8.171875 -20.054688 8.484375 -20.890625 C 8.804688 -21.734375 9.132812 -22.601562 9.46875 -23.5 C 9.8125 -24.394531 10.191406 -25.378906 10.609375 -26.453125 L 10.875 -26.453125 L 19.171875 -4.546875 C 19.742188 -3.117188 20.28125 -2.046875 20.78125 -1.328125 C 21.28125 -0.617188 21.925781 -0.265625 22.71875 -0.265625 L 22.71875 0 L 14.21875 0 L 14.21875 -0.265625 C 15.132812 -0.265625 15.828125 -0.382812 16.296875 -0.625 C 16.773438 -0.863281 17.082031 -1.195312 17.21875 -1.625 C 17.363281 -2.0625 17.382812 -2.566406 17.28125 -3.140625 C 17.175781 -3.710938 17 -4.328125 16.75 -4.984375 L 13.546875 -13.46875 C 13.640625 -12.632812 13.6875 -11.59375 13.6875 -10.34375 C 13.6875 -8.25 13.363281 -6.378906 12.71875 -4.734375 C 12.070312 -3.097656 11.140625 -1.8125 9.921875 -0.875 C 8.703125 0.0507812 7.226562 0.515625 5.5 0.515625 C 4.5 0.515625 3.644531 0.285156 2.9375 -0.171875 C 2.238281 -0.640625 1.703125 -1.257812 1.328125 -2.03125 C 0.960938 -2.800781 0.78125 -3.640625 0.78125 -4.546875 Z M 2.984375 -5.03125 C 2.984375 -3.820312 3.34375 -2.800781 4.0625 -1.96875 C 4.789062 -1.132812 5.789062 -0.71875 7.0625 -0.71875 C 8.144531 -0.71875 9.082031 -1.007812 9.875 -1.59375 C 10.675781 -2.1875 11.335938 -2.957031 11.859375 -3.90625 C 12.390625 -4.863281 12.785156 -5.90625 13.046875 -7.03125 C 13.304688 -8.15625 13.4375 -9.242188 13.4375 -10.296875 C 13.4375 -11.265625 13.40625 -12.128906 13.34375 -12.890625 C 13.28125 -13.648438 13.128906 -14.410156 12.890625 -15.171875 L 9.75 -23.453125 L 6.765625 -15.515625 C 6.597656 -15.066406 6.550781 -14.75 6.625 -14.5625 C 6.707031 -14.382812 6.851562 -14.296875 7.0625 -14.296875 C 7.351562 -14.296875 7.632812 -14.429688 7.90625 -14.703125 C 8.1875 -14.984375 8.460938 -15.300781 8.734375 -15.65625 C 9.015625 -16.007812 9.304688 -16.320312 9.609375 -16.59375 C 9.910156 -16.875 10.234375 -17.015625 10.578125 -17.015625 C 10.828125 -17.015625 11.03125 -16.929688 11.1875 -16.765625 C 11.351562 -16.597656 11.4375 -16.34375 11.4375 -16 C 11.4375 -15.425781 11.234375 -14.898438 10.828125 -14.421875 C 10.421875 -13.953125 9.894531 -13.492188 9.25 -13.046875 C 8.613281 -12.597656 7.929688 -12.125 7.203125 -11.625 C 6.484375 -11.125 5.800781 -10.566406 5.15625 -9.953125 C 4.519531 -9.335938 4 -8.628906 3.59375 -7.828125 C 3.1875 -7.035156 2.984375 -6.101562 2.984375 -5.03125 Z M 2.984375 -5.03125 "/></g></g></g><g fill="#2c2a4a" fill-opacity="1"><g transform="translate(361.896639, 364.218436)"><g><path d="M 0.78125 -25.9375 L 5.3125 -25.9375 L 19.84375 -3.78125 L 19.84375 -15.09375 C 19.84375 -17.613281 19.632812 -19.648438 19.21875 -21.203125 C 18.800781 -22.753906 18.257812 -23.882812 17.59375 -24.59375 C 16.925781 -25.3125 16.222656 -25.671875 15.484375 -25.671875 L 15.484375 -25.9375 L 22.484375 -25.9375 L 22.484375 -25.671875 C 21.742188 -25.671875 21.203125 -25.445312 20.859375 -25 C 20.523438 -24.550781 20.316406 -23.820312 20.234375 -22.8125 C 20.148438 -21.800781 20.109375 -20.441406 20.109375 -18.734375 L 20.109375 0.515625 L 19.84375 0.515625 L 3.421875 -24.484375 L 3.421875 -10.84375 C 3.421875 -8.332031 3.628906 -6.296875 4.046875 -4.734375 C 4.460938 -3.179688 5.003906 -2.046875 5.671875 -1.328125 C 6.335938 -0.617188 7.039062 -0.265625 7.78125 -0.265625 L 7.78125 0 L 0.78125 0 L 0.78125 -0.265625 C 1.519531 -0.265625 2.054688 -0.488281 2.390625 -0.9375 C 2.734375 -1.382812 2.945312 -2.117188 3.03125 -3.140625 C 3.125 -4.160156 3.171875 -5.515625 3.171875 -7.203125 L 3.171875 -18.734375 C 3.171875 -20.441406 3.125 -21.800781 3.03125 -22.8125 C 2.945312 -23.820312 2.734375 -24.550781 2.390625 -25 C 2.054688 -25.445312 1.519531 -25.671875 0.78125 -25.671875 Z M 0.78125 -25.9375 "/></g></g></g><g fill="#2c2a4a" fill-opacity="1"><g transform="translate(385.418457, 364.218436)"><g/></g></g><g fill="#2c2a4a" fill-opacity="1"><g transform="translate(394.754615, 364.218436)"><g><path d="M 0.78125 -25.671875 L 0.78125 -25.9375 L 3.890625 -25.9375 C 4.835938 -25.9375 5.703125 -25.976562 6.484375 -26.0625 C 7.273438 -26.15625 8.070312 -26.242188 8.875 -26.328125 C 9.6875 -26.410156 10.59375 -26.453125 11.59375 -26.453125 C 13.445312 -26.453125 15.007812 -26.097656 16.28125 -25.390625 C 17.5625 -24.679688 18.535156 -23.71875 19.203125 -22.5 C 19.867188 -21.28125 20.203125 -19.898438 20.203125 -18.359375 C 20.203125 -17.304688 20.007812 -16.289062 19.625 -15.3125 C 19.25 -14.332031 18.6875 -13.457031 17.9375 -12.6875 C 17.1875 -11.925781 16.253906 -11.316406 15.140625 -10.859375 C 14.035156 -10.410156 12.765625 -10.1875 11.328125 -10.1875 C 10.566406 -10.1875 9.796875 -10.253906 9.015625 -10.390625 C 8.242188 -10.535156 7.535156 -10.703125 6.890625 -10.890625 C 6.253906 -11.078125 5.75 -11.25 5.375 -11.40625 L 5.375 -7.203125 C 5.375 -5.515625 5.414062 -4.160156 5.5 -3.140625 C 5.582031 -2.117188 5.789062 -1.382812 6.125 -0.9375 C 6.46875 -0.488281 7.007812 -0.265625 7.75 -0.265625 L 7.75 0 L 0.78125 0 L 0.78125 -0.265625 C 1.519531 -0.265625 2.054688 -0.488281 2.390625 -0.9375 C 2.734375 -1.382812 2.945312 -2.117188 3.03125 -3.140625 C 3.125 -4.160156 3.171875 -5.515625 3.171875 -7.203125 L 3.171875 -18.734375 C 3.171875 -20.441406 3.125 -21.800781 3.03125 -22.8125 C 2.945312 -23.820312 2.734375 -24.550781 2.390625 -25 C 2.054688 -25.445312 1.519531 -25.671875 0.78125 -25.671875 Z M 5.375 -11.671875 C 6.03125 -11.390625 6.828125 -11.160156 7.765625 -10.984375 C 8.710938 -10.804688 9.75 -10.71875 10.875 -10.71875 C 12.164062 -10.71875 13.257812 -10.960938 14.15625 -11.453125 C 15.0625 -11.941406 15.796875 -12.578125 16.359375 -13.359375 C 16.921875 -14.140625 17.328125 -14.96875 17.578125 -15.84375 C 17.835938 -16.726562 17.96875 -17.5625 17.96875 -18.34375 C 17.96875 -19.914062 17.648438 -21.28125 17.015625 -22.4375 C 16.378906 -23.59375 15.472656 -24.488281 14.296875 -25.125 C 13.117188 -25.769531 11.722656 -26.09375 10.109375 -26.09375 C 9.160156 -26.09375 8.332031 -26.023438 7.625 -25.890625 C 6.914062 -25.765625 6.164062 -25.554688 5.375 -25.265625 Z M 5.375 -11.671875 "/></g></g></g><g fill="#2c2a4a" fill-opacity="1"><g transform="translate(416.77229, 364.218436)"><g><path d="M 0.78125 -25.671875 L 0.78125 -25.9375 L 19.34375 -25.9375 L 19.34375 -22.4375 L 19.09375 -22.4375 L 19.09375 -22.546875 C 19.09375 -23.410156 18.273438 -24.144531 16.640625 -24.75 C 15.003906 -25.363281 12.691406 -25.671875 9.703125 -25.671875 L 5.390625 -25.671875 L 5.390625 -14.53125 C 5.785156 -14.90625 6.238281 -15.195312 6.75 -15.40625 C 7.257812 -15.613281 7.8125 -15.71875 8.40625 -15.71875 C 9.039062 -15.71875 9.625 -15.632812 10.15625 -15.46875 C 10.6875 -15.300781 11.1875 -15.113281 11.65625 -14.90625 C 12.132812 -14.707031 12.613281 -14.523438 13.09375 -14.359375 C 13.582031 -14.191406 14.113281 -14.109375 14.6875 -14.109375 C 15.1875 -14.109375 15.628906 -14.242188 16.015625 -14.515625 C 16.398438 -14.785156 16.59375 -15.144531 16.59375 -15.59375 L 16.859375 -15.59375 C 16.859375 -14.832031 16.554688 -14.164062 15.953125 -13.59375 C 15.359375 -13.019531 14.554688 -12.734375 13.546875 -12.734375 C 12.742188 -12.734375 12.046875 -12.84375 11.453125 -13.0625 C 10.867188 -13.289062 10.34375 -13.550781 9.875 -13.84375 C 9.414062 -14.144531 8.972656 -14.410156 8.546875 -14.640625 C 8.117188 -14.867188 7.671875 -14.992188 7.203125 -15.015625 C 6.828125 -15.035156 6.484375 -14.957031 6.171875 -14.78125 C 5.859375 -14.613281 5.597656 -14.390625 5.390625 -14.109375 L 5.390625 -0.265625 L 8.71875 -0.265625 C 9.132812 -0.265625 9.671875 -0.273438 10.328125 -0.296875 C 10.992188 -0.328125 11.71875 -0.382812 12.5 -0.46875 C 13.28125 -0.550781 14.054688 -0.679688 14.828125 -0.859375 C 15.597656 -1.046875 16.304688 -1.285156 16.953125 -1.578125 C 17.597656 -1.867188 18.113281 -2.234375 18.5 -2.671875 C 18.894531 -3.117188 19.09375 -3.65625 19.09375 -4.28125 L 19.34375 -4.28125 L 19.34375 0 L 0.78125 0 L 0.78125 -0.265625 C 1.519531 -0.265625 2.054688 -0.488281 2.390625 -0.9375 C 2.734375 -1.382812 2.945312 -2.117188 3.03125 -3.140625 C 3.125 -4.160156 3.171875 -5.515625 3.171875 -7.203125 L 3.171875 -18.734375 C 3.171875 -20.441406 3.125 -21.800781 3.03125 -22.8125 C 2.945312 -23.820312 2.734375 -24.550781 2.390625 -25 C 2.054688 -25.445312 1.519531 -25.671875 0.78125 -25.671875 Z M 0.78125 -25.671875 "/></g></g></g><g fill="#2c2a4a" fill-opacity="1"><g transform="translate(437.156139, 364.218436)"><g><path d="M 0.78125 0 L 0.78125 -0.265625 C 1.519531 -0.265625 2.054688 -0.488281 2.390625 -0.9375 C 2.734375 -1.382812 2.945312 -2.117188 3.03125 -3.140625 C 3.125 -4.160156 3.171875 -5.515625 3.171875 -7.203125 L 3.171875 -18.734375 C 3.171875 -20.441406 3.125 -21.800781 3.03125 -22.8125 C 2.945312 -23.820312 2.734375 -24.550781 2.390625 -25 C 2.054688 -25.445312 1.519531 -25.671875 0.78125 -25.671875 L 0.78125 -25.9375 L 3.890625 -25.9375 C 4.835938 -25.9375 5.703125 -25.976562 6.484375 -26.0625 C 7.273438 -26.15625 8.070312 -26.242188 8.875 -26.328125 C 9.6875 -26.410156 10.59375 -26.453125 11.59375 -26.453125 C 13.445312 -26.453125 15.007812 -26.132812 16.28125 -25.5 C 17.5625 -24.875 18.535156 -24.015625 19.203125 -22.921875 C 19.867188 -21.835938 20.203125 -20.585938 20.203125 -19.171875 C 20.203125 -17.992188 19.894531 -16.882812 19.28125 -15.84375 C 18.664062 -14.8125 17.804688 -13.976562 16.703125 -13.34375 C 15.597656 -12.707031 14.289062 -12.390625 12.78125 -12.390625 C 12.175781 -12.390625 11.613281 -12.472656 11.09375 -12.640625 C 10.582031 -12.804688 10.113281 -13 9.6875 -13.21875 C 9.257812 -13.445312 8.875 -13.644531 8.53125 -13.8125 C 8.1875 -13.976562 7.875 -14.0625 7.59375 -14.0625 C 7.4375 -14.0625 7.269531 -14.019531 7.09375 -13.9375 C 6.925781 -13.863281 6.84375 -13.679688 6.84375 -13.390625 C 6.84375 -13.054688 7.03125 -12.757812 7.40625 -12.5 C 7.789062 -12.238281 8.285156 -11.976562 8.890625 -11.71875 C 9.492188 -11.457031 10.140625 -11.171875 10.828125 -10.859375 C 11.523438 -10.554688 12.191406 -10.175781 12.828125 -9.71875 C 13.472656 -9.269531 14.003906 -8.71875 14.421875 -8.0625 C 14.941406 -7.269531 15.476562 -6.421875 16.03125 -5.515625 C 16.582031 -4.609375 17.164062 -3.753906 17.78125 -2.953125 C 18.394531 -2.160156 19.035156 -1.515625 19.703125 -1.015625 C 20.378906 -0.515625 21.09375 -0.265625 21.84375 -0.265625 L 21.84375 0 L 17.875 0 C 17.582031 0 17.289062 -0.117188 17 -0.359375 C 16.71875 -0.597656 16.367188 -1.007812 15.953125 -1.59375 C 15.535156 -2.175781 15.003906 -2.96875 14.359375 -3.96875 C 13.710938 -4.96875 12.878906 -6.238281 11.859375 -7.78125 C 11.234375 -8.726562 10.609375 -9.476562 9.984375 -10.03125 C 9.359375 -10.59375 8.789062 -11.039062 8.28125 -11.375 C 7.769531 -11.707031 7.359375 -12.023438 7.046875 -12.328125 C 6.742188 -12.628906 6.59375 -13 6.59375 -13.4375 C 6.59375 -13.75 6.6875 -13.972656 6.875 -14.109375 C 7.0625 -14.242188 7.269531 -14.3125 7.5 -14.3125 C 7.875 -14.3125 8.242188 -14.238281 8.609375 -14.09375 C 8.972656 -13.945312 9.347656 -13.773438 9.734375 -13.578125 C 10.128906 -13.378906 10.554688 -13.207031 11.015625 -13.0625 C 11.484375 -12.914062 12.019531 -12.84375 12.625 -12.84375 C 13.4375 -12.84375 14.171875 -13.019531 14.828125 -13.375 C 15.492188 -13.738281 16.054688 -14.21875 16.515625 -14.8125 C 16.984375 -15.414062 17.34375 -16.09375 17.59375 -16.84375 C 17.84375 -17.59375 17.96875 -18.359375 17.96875 -19.140625 C 17.96875 -20.578125 17.648438 -21.8125 17.015625 -22.84375 C 16.378906 -23.882812 15.472656 -24.6875 14.296875 -25.25 C 13.117188 -25.8125 11.722656 -26.09375 10.109375 -26.09375 C 9.160156 -26.09375 8.332031 -26.023438 7.625 -25.890625 C 6.914062 -25.765625 6.164062 -25.554688 5.375 -25.265625 L 5.375 -7.203125 C 5.375 -5.515625 5.414062 -4.160156 5.5 -3.140625 C 5.582031 -2.117188 5.789062 -1.382812 6.125 -0.9375 C 6.46875 -0.488281 7.007812 -0.265625 7.75 -0.265625 L 7.75 0 Z M 0.78125 0 "/></g></g></g><g fill="#2c2a4a" fill-opacity="1"><g transform="translate(460.029626, 364.218436)"><g><path d="M 0.78125 -25.9375 L 5.3125 -25.9375 L 19.84375 -3.78125 L 19.84375 -15.09375 C 19.84375 -17.613281 19.632812 -19.648438 19.21875 -21.203125 C 18.800781 -22.753906 18.257812 -23.882812 17.59375 -24.59375 C 16.925781 -25.3125 16.222656 -25.671875 15.484375 -25.671875 L 15.484375 -25.9375 L 22.484375 -25.9375 L 22.484375 -25.671875 C 21.742188 -25.671875 21.203125 -25.445312 20.859375 -25 C 20.523438 -24.550781 20.316406 -23.820312 20.234375 -22.8125 C 20.148438 -21.800781 20.109375 -20.441406 20.109375 -18.734375 L 20.109375 0.515625 L 19.84375 0.515625 L 3.421875 -24.484375 L 3.421875 -10.84375 C 3.421875 -8.332031 3.628906 -6.296875 4.046875 -4.734375 C 4.460938 -3.179688 5.003906 -2.046875 5.671875 -1.328125 C 6.335938 -0.617188 7.039062 -0.265625 7.78125 -0.265625 L 7.78125 0 L 0.78125 0 L 0.78125 -0.265625 C 1.519531 -0.265625 2.054688 -0.488281 2.390625 -0.9375 C 2.734375 -1.382812 2.945312 -2.117188 3.03125 -3.140625 C 3.125 -4.160156 3.171875 -5.515625 3.171875 -7.203125 L 3.171875 -18.734375 C 3.171875 -20.441406 3.125 -21.800781 3.03125 -22.8125 C 2.945312 -23.820312 2.734375 -24.550781 2.390625 -25 C 2.054688 -25.445312 1.519531 -25.671875 0.78125 -25.671875 Z M 0.78125 -25.9375 "/></g></g></g><g fill="#2c2a4a" fill-opacity="1"><g transform="translate(483.551444, 364.218436)"><g><path d="M 0.78125 -25.671875 L 0.78125 -25.9375 L 7.78125 -25.9375 L 7.78125 -25.671875 C 7.039062 -25.671875 6.5 -25.445312 6.15625 -25 C 5.820312 -24.550781 5.609375 -23.820312 5.515625 -22.8125 C 5.429688 -21.800781 5.390625 -20.441406 5.390625 -18.734375 L 5.390625 -7.203125 C 5.390625 -5.515625 5.429688 -4.160156 5.515625 -3.140625 C 5.609375 -2.117188 5.820312 -1.382812 6.15625 -0.9375 C 6.5 -0.488281 7.039062 -0.265625 7.78125 -0.265625 L 7.78125 0 L 0.78125 0 L 0.78125 -0.265625 C 1.519531 -0.265625 2.054688 -0.488281 2.390625 -0.9375 C 2.734375 -1.382812 2.945312 -2.117188 3.03125 -3.140625 C 3.125 -4.160156 3.171875 -5.515625 3.171875 -7.203125 L 3.171875 -18.734375 C 3.171875 -20.441406 3.125 -21.800781 3.03125 -22.8125 C 2.945312 -23.820312 2.734375 -24.550781 2.390625 -25 C 2.054688 -25.445312 1.519531 -25.671875 0.78125 -25.671875 Z M 0.78125 -25.671875 "/></g></g></g><g fill="#2c2a4a" fill-opacity="1"><g transform="translate(492.368933, 364.218436)"><g><path d="M 16.78125 -23.46875 C 16.78125 -23.957031 16.703125 -24.4375 16.546875 -24.90625 C 16.390625 -25.382812 16.164062 -25.726562 15.875 -25.9375 L 18.4375 -25.9375 C 18.6875 -25.707031 18.878906 -25.367188 19.015625 -24.921875 C 19.148438 -24.472656 19.21875 -24.007812 19.21875 -23.53125 C 19.21875 -22.382812 18.992188 -21.375 18.546875 -20.5 C 18.097656 -19.625 17.492188 -18.863281 16.734375 -18.21875 C 15.984375 -17.570312 15.160156 -17.007812 14.265625 -16.53125 C 13.378906 -16.0625 12.488281 -15.648438 11.59375 -15.296875 C 10.707031 -14.953125 9.890625 -14.648438 9.140625 -14.390625 C 8.390625 -14.128906 7.789062 -13.882812 7.34375 -13.65625 C 6.894531 -13.4375 6.671875 -13.207031 6.671875 -12.96875 C 6.671875 -12.675781 6.832031 -12.445312 7.15625 -12.28125 C 7.488281 -12.113281 7.925781 -11.957031 8.46875 -11.8125 C 9.007812 -11.664062 9.59375 -11.472656 10.21875 -11.234375 C 10.851562 -11.003906 11.488281 -10.671875 12.125 -10.234375 C 12.757812 -9.804688 13.328125 -9.222656 13.828125 -8.484375 C 14.429688 -7.585938 15.039062 -6.65625 15.65625 -5.6875 C 16.269531 -4.71875 16.898438 -3.828125 17.546875 -3.015625 C 18.191406 -2.203125 18.851562 -1.539062 19.53125 -1.03125 C 20.207031 -0.519531 20.914062 -0.265625 21.65625 -0.265625 L 21.65625 0 L 17.6875 0 C 17.394531 0 17.101562 -0.117188 16.8125 -0.359375 C 16.53125 -0.597656 16.179688 -1.007812 15.765625 -1.59375 C 15.347656 -2.175781 14.816406 -2.96875 14.171875 -3.96875 C 13.523438 -4.96875 12.691406 -6.238281 11.671875 -7.78125 C 11.097656 -8.644531 10.546875 -9.332031 10.015625 -9.84375 C 9.492188 -10.351562 9.007812 -10.753906 8.5625 -11.046875 C 8.125 -11.335938 7.742188 -11.570312 7.421875 -11.75 C 7.109375 -11.925781 6.859375 -12.097656 6.671875 -12.265625 C 6.492188 -12.441406 6.40625 -12.675781 6.40625 -12.96875 C 6.40625 -13.300781 6.585938 -13.613281 6.953125 -13.90625 C 7.328125 -14.195312 7.828125 -14.492188 8.453125 -14.796875 C 9.078125 -15.097656 9.753906 -15.429688 10.484375 -15.796875 C 11.222656 -16.160156 11.957031 -16.570312 12.6875 -17.03125 C 13.425781 -17.488281 14.109375 -18.019531 14.734375 -18.625 C 15.359375 -19.226562 15.851562 -19.925781 16.21875 -20.71875 C 16.59375 -21.519531 16.78125 -22.4375 16.78125 -23.46875 Z M 0.78125 0 L 0.78125 -0.265625 C 1.519531 -0.265625 2.054688 -0.488281 2.390625 -0.9375 C 2.734375 -1.382812 2.945312 -2.117188 3.03125 -3.140625 C 3.125 -4.160156 3.171875 -5.515625 3.171875 -7.203125 L 3.171875 -18.734375 C 3.171875 -20.441406 3.125 -21.800781 3.03125 -22.8125 C 2.945312 -23.820312 2.734375 -24.550781 2.390625 -25 C 2.054688 -25.445312 1.519531 -25.671875 0.78125 -25.671875 L 0.78125 -25.9375 L 7.75 -25.9375 L 7.75 -25.671875 C 7.007812 -25.671875 6.46875 -25.445312 6.125 -25 C 5.789062 -24.550781 5.582031 -23.820312 5.5 -22.8125 C 5.414062 -21.800781 5.375 -20.441406 5.375 -18.734375 L 5.375 -7.203125 C 5.375 -5.515625 5.414062 -4.160156 5.5 -3.140625 C 5.582031 -2.117188 5.789062 -1.382812 6.125 -0.9375 C 6.46875 -0.488281 7.007812 -0.265625 7.75 -0.265625 L 7.75 0 Z M 0.78125 0 "/></g></g></g><g fill="#2c2a4a" fill-opacity="1"><g transform="translate(514.542203, 364.218436)"><g><path d="M 0.78125 -4.546875 C 0.78125 -5.609375 1.03125 -6.566406 1.53125 -7.421875 C 2.03125 -8.285156 2.671875 -9.066406 3.453125 -9.765625 C 4.242188 -10.460938 5.078125 -11.097656 5.953125 -11.671875 C 6.835938 -12.253906 7.675781 -12.789062 8.46875 -13.28125 C 9.257812 -13.78125 9.90625 -14.253906 10.40625 -14.703125 C 10.90625 -15.148438 11.15625 -15.601562 11.15625 -16.0625 C 11.15625 -16.300781 11.09375 -16.472656 10.96875 -16.578125 C 10.851562 -16.691406 10.707031 -16.75 10.53125 -16.75 C 10.21875 -16.75 9.925781 -16.609375 9.65625 -16.328125 C 9.394531 -16.054688 9.132812 -15.742188 8.875 -15.390625 C 8.613281 -15.035156 8.332031 -14.71875 8.03125 -14.4375 C 7.726562 -14.164062 7.394531 -14.03125 7.03125 -14.03125 C 6.664062 -14.03125 6.441406 -14.175781 6.359375 -14.46875 C 6.285156 -14.769531 6.3125 -15.082031 6.4375 -15.40625 C 6.832031 -16.445312 7.191406 -17.410156 7.515625 -18.296875 C 7.847656 -19.191406 8.171875 -20.054688 8.484375 -20.890625 C 8.804688 -21.734375 9.132812 -22.601562 9.46875 -23.5 C 9.8125 -24.394531 10.191406 -25.378906 10.609375 -26.453125 L 10.875 -26.453125 L 19.171875 -4.546875 C 19.742188 -3.117188 20.28125 -2.046875 20.78125 -1.328125 C 21.28125 -0.617188 21.925781 -0.265625 22.71875 -0.265625 L 22.71875 0 L 14.21875 0 L 14.21875 -0.265625 C 15.132812 -0.265625 15.828125 -0.382812 16.296875 -0.625 C 16.773438 -0.863281 17.082031 -1.195312 17.21875 -1.625 C 17.363281 -2.0625 17.382812 -2.566406 17.28125 -3.140625 C 17.175781 -3.710938 17 -4.328125 16.75 -4.984375 L 13.546875 -13.46875 C 13.640625 -12.632812 13.6875 -11.59375 13.6875 -10.34375 C 13.6875 -8.25 13.363281 -6.378906 12.71875 -4.734375 C 12.070312 -3.097656 11.140625 -1.8125 9.921875 -0.875 C 8.703125 0.0507812 7.226562 0.515625 5.5 0.515625 C 4.5 0.515625 3.644531 0.285156 2.9375 -0.171875 C 2.238281 -0.640625 1.703125 -1.257812 1.328125 -2.03125 C 0.960938 -2.800781 0.78125 -3.640625 0.78125 -4.546875 Z M 2.984375 -5.03125 C 2.984375 -3.820312 3.34375 -2.800781 4.0625 -1.96875 C 4.789062 -1.132812 5.789062 -0.71875 7.0625 -0.71875 C 8.144531 -0.71875 9.082031 -1.007812 9.875 -1.59375 C 10.675781 -2.1875 11.335938 -2.957031 11.859375 -3.90625 C 12.390625 -4.863281 12.785156 -5.90625 13.046875 -7.03125 C 13.304688 -8.15625 13.4375 -9.242188 13.4375 -10.296875 C 13.4375 -11.265625 13.40625 -12.128906 13.34375 -12.890625 C 13.28125 -13.648438 13.128906 -14.410156 12.890625 -15.171875 L 9.75 -23.453125 L 6.765625 -15.515625 C 6.597656 -15.066406 6.550781 -14.75 6.625 -14.5625 C 6.707031 -14.382812 6.851562 -14.296875 7.0625 -14.296875 C 7.351562 -14.296875 7.632812 -14.429688 7.90625 -14.703125 C 8.1875 -14.984375 8.460938 -15.300781 8.734375 -15.65625 C 9.015625 -16.007812 9.304688 -16.320312 9.609375 -16.59375 C 9.910156 -16.875 10.234375 -17.015625 10.578125 -17.015625 C 10.828125 -17.015625 11.03125 -16.929688 11.1875 -16.765625 C 11.351562 -16.597656 11.4375 -16.34375 11.4375 -16 C 11.4375 -15.425781 11.234375 -14.898438 10.828125 -14.421875 C 10.421875 -13.953125 9.894531 -13.492188 9.25 -13.046875 C 8.613281 -12.597656 7.929688 -12.125 7.203125 -11.625 C 6.484375 -11.125 5.800781 -10.566406 5.15625 -9.953125 C 4.519531 -9.335938 4 -8.628906 3.59375 -7.828125 C 3.1875 -7.035156 2.984375 -6.101562 2.984375 -5.03125 Z M 2.984375 -5.03125 "/></g></g></g><g fill="#2c2a4a" fill-opacity="1"><g transform="translate(537.51942, 364.218436)"><g><path d="M 7.78125 0 L 0.78125 0 L 0.78125 -0.265625 C 1.519531 -0.265625 2.054688 -0.488281 2.390625 -0.9375 C 2.734375 -1.382812 2.945312 -2.117188 3.03125 -3.140625 C 3.125 -4.160156 3.171875 -5.515625 3.171875 -7.203125 L 3.171875 -18.734375 C 3.171875 -20.441406 3.125 -21.800781 3.03125 -22.8125 C 2.945312 -23.820312 2.734375 -24.550781 2.390625 -25 C 2.054688 -25.445312 1.519531 -25.671875 0.78125 -25.671875 L 0.78125 -25.9375 L 7.78125 -25.9375 L 7.78125 -25.671875 C 7.039062 -25.671875 6.5 -25.445312 6.15625 -25 C 5.820312 -24.550781 5.609375 -23.820312 5.515625 -22.8125 C 5.429688 -21.800781 5.390625 -20.441406 5.390625 -18.734375 L 5.390625 -14.1875 C 5.546875 -14.53125 5.890625 -14.867188 6.421875 -15.203125 C 6.960938 -15.546875 7.625 -15.71875 8.40625 -15.71875 C 9.269531 -15.71875 10.085938 -15.582031 10.859375 -15.3125 C 11.640625 -15.050781 12.398438 -14.785156 13.140625 -14.515625 C 13.890625 -14.242188 14.644531 -14.109375 15.40625 -14.109375 C 15.90625 -14.109375 16.347656 -14.242188 16.734375 -14.515625 C 17.128906 -14.785156 17.328125 -15.144531 17.328125 -15.59375 L 17.578125 -15.59375 C 17.578125 -14.832031 17.28125 -14.164062 16.6875 -13.59375 C 16.09375 -13.019531 15.285156 -12.734375 14.265625 -12.734375 C 13.472656 -12.734375 12.742188 -12.847656 12.078125 -13.078125 C 11.421875 -13.316406 10.804688 -13.582031 10.234375 -13.875 C 9.671875 -14.164062 9.140625 -14.425781 8.640625 -14.65625 C 8.148438 -14.894531 7.671875 -15.015625 7.203125 -15.015625 C 6.535156 -15.015625 6.066406 -14.785156 5.796875 -14.328125 C 5.523438 -13.867188 5.390625 -13.335938 5.390625 -12.734375 L 5.390625 -7.203125 C 5.390625 -5.515625 5.429688 -4.160156 5.515625 -3.140625 C 5.609375 -2.117188 5.820312 -1.382812 6.15625 -0.9375 C 6.5 -0.488281 7.039062 -0.265625 7.78125 -0.265625 Z M 15.984375 -25.671875 L 15.984375 -25.9375 L 22.984375 -25.9375 L 22.984375 -25.671875 C 22.234375 -25.671875 21.691406 -25.445312 21.359375 -25 C 21.023438 -24.550781 20.8125 -23.820312 20.71875 -22.8125 C 20.632812 -21.800781 20.59375 -20.441406 20.59375 -18.734375 L 20.59375 -7.203125 C 20.59375 -5.515625 20.632812 -4.160156 20.71875 -3.140625 C 20.8125 -2.117188 21.023438 -1.382812 21.359375 -0.9375 C 21.691406 -0.488281 22.234375 -0.265625 22.984375 -0.265625 L 22.984375 0 L 15.984375 0 L 15.984375 -0.265625 C 16.722656 -0.265625 17.257812 -0.488281 17.59375 -0.9375 C 17.9375 -1.382812 18.148438 -2.117188 18.234375 -3.140625 C 18.316406 -4.160156 18.359375 -5.515625 18.359375 -7.203125 L 18.359375 -18.734375 C 18.359375 -20.441406 18.316406 -21.800781 18.234375 -22.8125 C 18.148438 -23.820312 17.9375 -24.550781 17.59375 -25 C 17.257812 -25.445312 16.722656 -25.671875 15.984375 -25.671875 Z M 15.984375 -25.671875 "/></g></g></g><g fill="#2c2a4a" fill-opacity="1"><g transform="translate(561.533974, 364.218436)"><g><path d="M 0.78125 -4.546875 C 0.78125 -5.609375 1.03125 -6.566406 1.53125 -7.421875 C 2.03125 -8.285156 2.671875 -9.066406 3.453125 -9.765625 C 4.242188 -10.460938 5.078125 -11.097656 5.953125 -11.671875 C 6.835938 -12.253906 7.675781 -12.789062 8.46875 -13.28125 C 9.257812 -13.78125 9.90625 -14.253906 10.40625 -14.703125 C 10.90625 -15.148438 11.15625 -15.601562 11.15625 -16.0625 C 11.15625 -16.300781 11.09375 -16.472656 10.96875 -16.578125 C 10.851562 -16.691406 10.707031 -16.75 10.53125 -16.75 C 10.21875 -16.75 9.925781 -16.609375 9.65625 -16.328125 C 9.394531 -16.054688 9.132812 -15.742188 8.875 -15.390625 C 8.613281 -15.035156 8.332031 -14.71875 8.03125 -14.4375 C 7.726562 -14.164062 7.394531 -14.03125 7.03125 -14.03125 C 6.664062 -14.03125 6.441406 -14.175781 6.359375 -14.46875 C 6.285156 -14.769531 6.3125 -15.082031 6.4375 -15.40625 C 6.832031 -16.445312 7.191406 -17.410156 7.515625 -18.296875 C 7.847656 -19.191406 8.171875 -20.054688 8.484375 -20.890625 C 8.804688 -21.734375 9.132812 -22.601562 9.46875 -23.5 C 9.8125 -24.394531 10.191406 -25.378906 10.609375 -26.453125 L 10.875 -26.453125 L 19.171875 -4.546875 C 19.742188 -3.117188 20.28125 -2.046875 20.78125 -1.328125 C 21.28125 -0.617188 21.925781 -0.265625 22.71875 -0.265625 L 22.71875 0 L 14.21875 0 L 14.21875 -0.265625 C 15.132812 -0.265625 15.828125 -0.382812 16.296875 -0.625 C 16.773438 -0.863281 17.082031 -1.195312 17.21875 -1.625 C 17.363281 -2.0625 17.382812 -2.566406 17.28125 -3.140625 C 17.175781 -3.710938 17 -4.328125 16.75 -4.984375 L 13.546875 -13.46875 C 13.640625 -12.632812 13.6875 -11.59375 13.6875 -10.34375 C 13.6875 -8.25 13.363281 -6.378906 12.71875 -4.734375 C 12.070312 -3.097656 11.140625 -1.8125 9.921875 -0.875 C 8.703125 0.0507812 7.226562 0.515625 5.5 0.515625 C 4.5 0.515625 3.644531 0.285156 2.9375 -0.171875 C 2.238281 -0.640625 1.703125 -1.257812 1.328125 -2.03125 C 0.960938 -2.800781 0.78125 -3.640625 0.78125 -4.546875 Z M 2.984375 -5.03125 C 2.984375 -3.820312 3.34375 -2.800781 4.0625 -1.96875 C 4.789062 -1.132812 5.789062 -0.71875 7.0625 -0.71875 C 8.144531 -0.71875 9.082031 -1.007812 9.875 -1.59375 C 10.675781 -2.1875 11.335938 -2.957031 11.859375 -3.90625 C 12.390625 -4.863281 12.785156 -5.90625 13.046875 -7.03125 C 13.304688 -8.15625 13.4375 -9.242188 13.4375 -10.296875 C 13.4375 -11.265625 13.40625 -12.128906 13.34375 -12.890625 C 13.28125 -13.648438 13.128906 -14.410156 12.890625 -15.171875 L 9.75 -23.453125 L 6.765625 -15.515625 C 6.597656 -15.066406 6.550781 -14.75 6.625 -14.5625 C 6.707031 -14.382812 6.851562 -14.296875 7.0625 -14.296875 C 7.351562 -14.296875 7.632812 -14.429688 7.90625 -14.703125 C 8.1875 -14.984375 8.460938 -15.300781 8.734375 -15.65625 C 9.015625 -16.007812 9.304688 -16.320312 9.609375 -16.59375 C 9.910156 -16.875 10.234375 -17.015625 10.578125 -17.015625 C 10.828125 -17.015625 11.03125 -16.929688 11.1875 -16.765625 C 11.351562 -16.597656 11.4375 -16.34375 11.4375 -16 C 11.4375 -15.425781 11.234375 -14.898438 10.828125 -14.421875 C 10.421875 -13.953125 9.894531 -13.492188 9.25 -13.046875 C 8.613281 -12.597656 7.929688 -12.125 7.203125 -11.625 C 6.484375 -11.125 5.800781 -10.566406 5.15625 -9.953125 C 4.519531 -9.335938 4 -8.628906 3.59375 -7.828125 C 3.1875 -7.035156 2.984375 -6.101562 2.984375 -5.03125 Z M 2.984375 -5.03125 "/></g></g></g><g fill="#2c2a4a" fill-opacity="1"><g transform="translate(584.511214, 364.218436)"><g><path d="M 0.78125 -25.9375 L 5.3125 -25.9375 L 19.84375 -3.78125 L 19.84375 -15.09375 C 19.84375 -17.613281 19.632812 -19.648438 19.21875 -21.203125 C 18.800781 -22.753906 18.257812 -23.882812 17.59375 -24.59375 C 16.925781 -25.3125 16.222656 -25.671875 15.484375 -25.671875 L 15.484375 -25.9375 L 22.484375 -25.9375 L 22.484375 -25.671875 C 21.742188 -25.671875 21.203125 -25.445312 20.859375 -25 C 20.523438 -24.550781 20.316406 -23.820312 20.234375 -22.8125 C 20.148438 -21.800781 20.109375 -20.441406 20.109375 -18.734375 L 20.109375 0.515625 L 19.84375 0.515625 L 3.421875 -24.484375 L 3.421875 -10.84375 C 3.421875 -8.332031 3.628906 -6.296875 4.046875 -4.734375 C 4.460938 -3.179688 5.003906 -2.046875 5.671875 -1.328125 C 6.335938 -0.617188 7.039062 -0.265625 7.78125 -0.265625 L 7.78125 0 L 0.78125 0 L 0.78125 -0.265625 C 1.519531 -0.265625 2.054688 -0.488281 2.390625 -0.9375 C 2.734375 -1.382812 2.945312 -2.117188 3.03125 -3.140625 C 3.125 -4.160156 3.171875 -5.515625 3.171875 -7.203125 L 3.171875 -18.734375 C 3.171875 -20.441406 3.125 -21.800781 3.03125 -22.8125 C 2.945312 -23.820312 2.734375 -24.550781 2.390625 -25 C 2.054688 -25.445312 1.519531 -25.671875 0.78125 -25.671875 Z M 0.78125 -25.9375 "/></g></g></g></svg>